<?xml version="1.0" standalone="no"?>
<!DOCTYPE svg PUBLIC "-//W3C//DTD SVG 1.1//EN" "http://www.w3.org/Graphics/SVG/1.1/DTD/svg11.dtd" >
<svg xmlns="http://www.w3.org/2000/svg">
<metadata>Generated by IcoMoon</metadata>
<defs>
<font id="icomoon" horiz-adv-x="1024">
<font-face units-per-em="1024" ascent="960" descent="-64" />
<missing-glyph horiz-adv-x="1024" />
<glyph unicode="&#x20;" horiz-adv-x="512" d="" />
<glyph unicode="&#xe900;" glyph-name="tokeout-mobile" d="M975.307 707.239c-0.731-369.141-290.408-672.035-664.11-716.45-16.619-4.023-33.743-6.811-51.674-6.811-17.482 0-34.197 2.621-50.439 6.452-2.591 0.439-4.945 1.306-7.405 2.198-8.156 2.233-11.686 7.395-19.401 10.516l1.169 2.424c-0.928 1.149-2.228 1.865-3.035 3.131-12.093 18.964-5.818 43.709 14.024 55.274l3.534 1.628c14.78 8.613 49.859 11.453 63.148 2.47v0c4.31-0.258-4.093 2.339-1.18 1.704 5.934-1.295 10.143-2.701 15.985-1.911 127.807 10.49 209.768 49.512 232.009 61.383 149.378 68.829 268.293 188.066 331.465 335.385 8.932 17.467 48.731 102.573 49.729 234.615l-1.028 0.066c0.221 2.964 1.795 5.489 1.795 8.509 0 66.807-56.65 120.967-126.527 120.967-69.882 0-126.532-54.159-126.532-120.967 0-60.083 46.649-107.715 106.701-117.146l-0.216-2.803c21.525-1.775 38.599-18.521 38.599-39.556l-0.383-3.736c0-12.169-1.306-22.709-10.237-30.084l-0.262-5.646c-0.439-0.015-0.837-0.172-1.275-0.187-53.998-137.113-162.897-247.554-300.399-309.866 0.045-0.68 0.136-1.351 0.211-2.016l-9.259-0.661c-3.372-5.217-7.622-5.323-13.474-8.729l-3.539-1.638c-19.847-11.559-45.731-5.55-57.824 13.414-3.085 4.843-4.909 10.057-5.686 15.33l-0.933-0.126c-13.938 52.138-61.161 91.497-120.044 91.497-69.701 0-126.205-54.024-126.205-120.66 0-13.157 3.76-25.24 7.834-37.091l0.095-1.21c0.54-0.725-1.9 1.759-1.412 0.988 11.357-17.815 5.46-45.696-13.177-56.559l-3.323-1.533c-13.741-8.005-30.508-6.921-42.949 1.275l-3.625-3.402c-2.243 3.831-3.311 8.267-5.323 12.234-0.721 0.928-1.769 1.481-2.407 2.49-3.060 4.794-4.659 9.976-5.303 15.213-8.497 21.46-14.7 43.935-14.7 68.269 0 111.515 94.558 201.919 211.205 201.919 81.345 0 151.126-44.456 186.409-108.894 107.407 51.498 193.249 137.658 239.888 244.027-77.645 29.842-132.612 102.221-132.612 187.124 0 111.515 94.558 201.919 211.2 201.919 101.68 0 186.484-68.738 206.587-160.23h2.107c0.736-11.947 1.552-23.874 1.895-35.922 0.061-1.96 0.609-3.791 0.609-5.767 0-0.962-0.282-1.86-0.297-2.822z" />
<glyph unicode="&#xe901;" glyph-name="tokeout" horiz-adv-x="1224" d="M965.012 387.752l-520.28-1.967v311.108h-80.184c-17.668-23.742-77.541-152.873-111.905-227.035-20.765-44.7-18.596-94.701 5.155-126.636 0 0 0 0 0 0 2.878 2.673 5.874 5.234 8.989 7.64 0.021 0.021 0.023 0.023 0.044 0.023 3.070 2.381 6.232 4.615 9.503 6.714 0.177 0.104 0.331 0.186 0.486 0.287 3.136 1.988 6.339 3.843 9.651 5.566 0.435 0.228 0.89 0.42 1.346 0.642 3.070 1.546 6.162 3.002 9.364 4.286 0.849 0.354 1.745 0.64 2.588 0.971 2.871 1.083 5.742 2.142 8.702 3.043 1.391 0.42 2.849 0.729 4.284 1.104 2.505 0.663 5.014 1.348 7.575 1.856 2.187 0.442 4.417 0.707 6.648 1.016 1.922 0.269 3.789 0.642 5.735 0.839 4.241 0.435 8.524 0.663 12.875 0.663 6.073 0 12.015-0.574 17.866-1.387 1.391-0.186 2.782-0.397 4.161-0.64 5.764-0.994 11.44-2.253 16.915-3.975 0.199-0.066 0.393-0.155 0.597-0.221 5.366-1.745 10.538-3.909 15.593-6.294 1.060-0.508 2.12-0.994 3.158-1.524 5.19-2.629 10.207-5.528 14.968-8.812 0.066-0.044 0.145-0.104 0.221-0.155 4.748-3.292 9.213-6.979 13.494-10.888 0.6-0.552 1.221-1.097 1.811-1.656 8.679-8.259 16.21-17.668 22.372-28.053 0.269-0.463 0.559-0.905 0.839-1.387 3.085-5.345 5.831-10.888 8.15-16.666v0h290.819c17.535 43.728 57.866 75.354 106.229 80.566 3.335 0.42 6.729 0.64 10.137 0.795 1.263 0.023 2.474 0.287 3.776 0.287 0.331 0 0.642-0.062 0.973-0.062s0.642 0.062 0.973 0.062c71.654 0 129.573-58.349 129.573-130.545s-57.907-130.545-129.573-130.545c-0.331 0-0.642 0.062-0.973 0.062s-0.642-0.062-0.973-0.062v0c-71.666 0-129.582 58.349-129.582 130.545 0 9.503 1.060 18.772 2.961 27.695h-277.168c-0.265 0-0.476 0.132-0.729 0.145 0.949-4.373 1.679-8.834 2.187-13.361 0.021-0.132 0.023-0.243 0.044-0.376 0.508-4.638 0.795-9.337 0.795-14.099 0-72.196-57.929-130.545-129.582-130.545-71.666 0-129.582 58.349-129.582 130.545 0 6.626 0.642 13.075 1.59 19.435 0.177 1.126 0.311 2.23 0.508 3.335 1.104 6.339 2.628 12.5 4.593 18.485 0.132 0.354 0.269 0.707 0.393 1.060 4.351 12.815 10.623 24.691 18.485 35.341 0 0 0 0 0 0-29.594 42.545-32.686 104.034-6.894 159.698 18.654 39.554 46.148 94.925 70.672 139.437 49.087 92.978 54.97 92.978 66.763 92.978h72.648c18.654 0 19.943-15.835 19.943-34.607v-275.499l500.333 1.967c0.186 0-0.766-21.953 0-21.202zM877.644 137.057c52.731 0.707 108.637 57.2 108.637 110.271s-56.872 109.564-108.637 110.271c-51.779-0.707-108.637-57.2-108.637-110.271 0-52.099 55.92-109.564 108.637-110.271zM238.051 264.879c-0.186-0.849-0.311-1.701-0.476-2.54-0.971-5.014-1.612-10.027-1.612-15.018 0-52.408 56.604-110.328 109.624-110.328 53.004 0 109.624 56.913 109.624 110.328s-56.623 110.328-109.624 110.328c-3.578 0-7.184-0.311-10.786-0.839-1.104-0.155-2.209-0.435-3.313-0.64-2.547-0.476-5.080-1.014-7.598-1.718-1.215-0.352-2.408-0.729-3.6-1.126-2.505-0.807-4.992-1.701-7.474-2.716-1.060-0.435-2.132-0.89-3.181-1.369-2.782-1.236-5.521-2.606-8.238-4.107-0.683-0.376-1.387-0.729-2.054-1.126-14.355-8.261-27.606-19.744-38.251-33.039l0.089-0.354c-0.104 0-0.199 0.062-0.311 0.062-7.35-9.231-13.383-19.324-17.701-29.77-0.177-0.42-0.354-0.839-0.53-1.263-1.943-4.859-3.445-9.806-4.549-14.761zM345.584 290.841c23.565 0 43.198-19.772 43.198-43.508s-19.634-43.508-43.198-43.508c-23.565 0-43.198 19.772-43.198 43.508s19.634 43.508 43.198 43.508zM345.584 224.013c4.907 0 23.234 18.364 23.234 23.3s-18.322 23.3-23.234 23.3c-4.907 0-23.25-18.364-23.25-23.3s18.331-23.3 23.25-23.3zM878.629 290.841c23.565 0 43.198-19.772 43.198-43.508s-19.634-43.508-43.198-43.508c-23.565 0-43.198 19.772-43.198 43.508s19.634 43.508 43.198 43.508zM878.629 224.013c4.907 0 23.234 18.364 23.234 23.3s-18.322 23.3-23.234 23.3c-4.907 0-23.25-18.364-23.25-23.3s18.331-23.3 23.25-23.3zM919.84 479.737h-284.677c-18.654 0-34.347 15.835-34.347 34.629v129.552c0 18.778 15.702 34.607 34.347 34.607h284.677c18.654 0 34.364-15.835 34.364-34.607v-129.552c0-18.794-15.714-34.629-34.364-34.629zM933.268 658.316h-312.504v-158.359h312.504v158.359zM462.436 750.366h-75.134c-15.018 0-27.231 6.48-27.231 14.466 0 7.971 12.213 14.444 27.231 14.444h75.134c15.040 0 27.253-6.48 27.253-14.444 0-7.973-12.213-14.466-27.253-14.466z" />
<glyph unicode="&#xe902;" glyph-name="balance" horiz-adv-x="896" d="M73.353 351.503c-70.796-159.29-84.395-287.209-16.554-355.050 63.251-63.251 708.201-63.251 771.453 0 67.841 67.841 54.242 195.759-16.554 355.050-52.098 117.22-136.411 246.325-176.501 278.397-18.601 14.881-30.456 13.476-105.884-3.385-37.34-8.347-61.702-12.115-86.788-12.115s-49.447 3.768-86.788 12.115c-75.428 16.86-87.283 18.265-105.884 3.385-40.089-32.071-124.403-161.177-176.501-278.397zM350.153 601.532c39.046-8.728 64.929-12.732 92.372-12.732s53.326 4.004 92.372 12.732c61.747 13.802 75.49 15.431 84.307 8.378 36.218-28.975 118.519-154.997 169.099-268.803 66.79-150.278 79.41-268.986 21.846-326.55-53.254-53.254-681.995-53.254-735.249 0-57.565 57.565-44.944 176.272 21.846 326.55 50.581 113.806 132.881 239.829 169.099 268.803 8.817 7.053 22.56 5.425 84.307-8.378zM550.4 897.616c26.182 0 40.023 5.828 54.992 19.134 2.16 1.92 10.96 10.216 13.333 12.326 14.654 13.026 28.251 19.74 46.874 19.74 29.851 0 39.632-24.587 38.549-57.053-0.714-21.427-6.462-48.999-15.965-77.456-22.248-66.622-58.48-123.189-100.705-144.373-69.324-34.779-222.209-34.779-291.533 0-42.226 21.184-78.457 77.751-100.705 144.373-9.503 28.457-15.25 56.029-15.965 77.456-1.083 32.466 8.699 57.053 38.549 57.053 18.623 0 32.221-6.715 46.874-19.74 2.374-2.11 11.174-10.406 13.333-12.326 14.969-13.306 28.81-19.134 54.992-19.134 21.787 0 34.741 6.913 49.719 23.023 1.742 1.873 13.759 15.646 17.615 19.564 12.496 12.697 24.982 19.797 41.353 19.797s28.857-7.1 41.353-19.797c3.856-3.918 15.873-17.691 17.615-19.564 14.978-16.11 27.932-23.023 49.719-23.023zM550.4 872.016c-69.52 0-76.832 62.384-108.687 62.384s-39.167-62.384-108.687-62.384c-76.8 0-76.8 51.2-115.2 51.2s13.058-192 89.6-230.4c62.101-31.155 206.473-31.155 268.574 0 76.542 38.4 128 230.4 89.6 230.4s-38.4-51.2-115.2-51.2zM572.475 448l-98.748-162.3h86.31v-29.653h-99.51v-32.37h99.51v-29.653h-99.51v-66.324h-41.378v66.324h-99.51v29.653h99.51v32.37h-99.51v29.653h86.31l-98.748 162.3h46.963l85.548-144.644 85.802 144.644h46.963z" />
<glyph unicode="&#xe903;" glyph-name="addshoppingcart" d="M749.2 895.8c-116 0-211-94.9-211-211s95-211 211-211 211 95 211 211-94.9 211-211 211zM880 680.6c0-12.7-8.4-21.1-21.1-21.1h-84.4v-84.4c0-12.7-8.4-21.1-21.1-21.1h-8.4c-12.7 0-21.1 8.4-21.1 21.1v84.4h-84.4c-12.7 0-21.1 8.4-21.1 21.1v8.4c0 12.7 8.4 21.1 21.1 21.1h84.4v84.4c0 12.7 8.4 21.1 21.1 21.1h10.5c12.7 0 21.1-8.4 21.1-21.1v-84.4h84.4c12.7 0 21.1-8.4 21.1-21.1v-8.4h-2.1zM298.8 122.2c-33.8 0-61.3-27.4-61.3-61.2s27.5-61.2 61.3-61.2 61.2 27.4 61.2 61.2-27.4 61.2-61.2 61.2zM742.7 433.2l-2.6-8.6c-1.3-4.1-3.9-5.8-7.7-8.6-3.7-2.8-8.2-2-12.5-2h-257.6c-16.9 0-30.7-13.9-30.7-30.8s13.7-30.8 30.7-30.8h226.7c6.1 0 12.1-6.6 16-11.9s4.8-13.8 3-19.6l-17.3-55.7c-1.9-6-5.7-8.1-11.2-12.1s-11.9-2.5-18.2-2.5h-371.9c-5 0-10-2.2-14 1.4s-6.4 6.4-7.1 11.3l-61.6 486.9c-1.4 15.8-14.6 30.9-30.5 30.9h-81.7c-16.9 0-30.7-13.9-30.7-30.8s13.7-30.8 30.7-30.8h34.7c5.1 0 10.1-5.6 14.2-9.2s6.4-10.3 7.1-15.3l61.6-480.9c1.4-15.8 14.6-25.2 30.5-25.2h464.7c13.9 0 26.1 5.7 29.6 19.1l71.1 231.9c-18.8-4.5-38.4-6.8-58.6-6.8-2.3 0-4.5 0-6.7 0.1zM360.1 597.6c-16.9 0-30.7-13.9-30.7-30.8s13.7-30.8 30.7-30.8h185.2c-13.8 18.7-25.2 39.4-33.5 61.5h-151.7zM625.6 122.2c-33.8 0-61.3-27.4-61.3-61.2s27.5-61.2 61.3-61.2 61.3 27.4 61.3 61.2-27.4 61.2-61.3 61.2z" />
<glyph unicode="&#xe904;" glyph-name="integral" d="M807.038 527.933c-29.768 29.763-65.336 51.618-104.156 64.505v123.015c0 23.216-15.742 56.111-90.726 80.999-51.39 17.058-119.313 26.452-191.255 26.452-71.938 0-139.861-9.394-191.255-26.452-74.984-24.888-90.725-57.786-90.725-80.999v-498.45c0-23.212 15.74-56.107 90.725-80.995 51.394-17.063 119.316-26.456 191.255-26.456 20.035 0 39.962 0.743 59.353 2.199 41.286-25.187 88.796-38.655 138.388-38.655 38.419 0 75.502 8.008 110.219 23.801 33.531 15.253 63.073 36.916 87.816 64.39 7.668 8.514 6.983 21.635-1.531 29.303-8.515 7.664-21.63 6.979-29.302-1.535-42.622-47.324-103.568-74.464-167.206-74.464-124.033 0-224.942 100.911-224.942 224.942 0 124.037 100.909 224.943 224.942 224.943 124.035 0 224.947-100.911 224.947-224.943 0-11.328-0.847-22.697-2.519-33.792-1.705-11.332 6.096-21.9 17.423-23.605 11.336-1.697 21.901 6.095 23.609 17.428 1.984 13.231 2.979 26.592 2.979 39.97 0.001 71.167-27.717 138.071-78.039 188.399zM242.719 757.071c47.288 15.697 110.569 24.34 178.183 24.34 67.615 0 130.895-8.643 178.185-24.34 42.809-14.208 62.302-31.533 62.302-41.618s-19.493-27.41-62.302-41.62c-47.29-15.695-110.567-24.338-178.185-24.338-67.615 0-130.895 8.643-178.183 24.338-42.806 14.209-62.302 31.535-62.302 41.62s19.496 27.411 62.302 41.618zM180.415 398.826c38.67-24.979 104.287-40.552 172.089-46.58-0.201-4.232-0.303-8.473-0.303-12.714 0-27.498 4.153-54.355 12.135-79.866-50.938 3.802-97.177 12.709-132.369 25.644-24.498 9.008-42.618 19.875-51.552 30.438v83.078zM355.427 381.142c-50.184 4.399-95.403 13.817-128.902 26.987-21.912 8.614-37.906 18.556-46.109 28.278v83.123c13.396-8.651 30.502-16.485 51.192-23.352 42.552-14.125 96.656-22.925 155.022-25.411-15.707-27.667-26.261-57.941-31.203-89.625zM430.237 151.128l0.023-0.017c-3.117-0.042-6.234-0.066-9.359-0.066-67.615 0-130.895 8.647-178.183 24.34-42.806 14.207-62.302 31.535-62.302 41.618v61.049c10.604-6.867 24.193-13.63 41.528-20.004 40.771-14.987 94.879-24.88 153.754-28.232 13.083-28.929 31.417-55.559 54.539-78.688zM430.237 527.933c-8.966-8.967-17.29-18.556-24.91-28.692-121.328 2.307-202.602 31.348-224.91 57.858v99.286c12.552-7.668 28.657-15.104 49.232-21.934 51.391-17.054 119.313-26.448 191.254-26.448 71.939 0 139.863 9.394 191.258 26.448 20.571 6.83 36.676 14.265 49.227 21.934v-53.826c-14.137 2.27-28.431 3.411-42.746 3.411-71.169-0.001-138.080-27.714-188.405-78.037zM732.516 487.522c-27.306 21.042-59.824 34.074-94.040 37.692-7.979 0.847-15.124-4.942-15.967-12.917-0.846-7.979 4.938-15.124 12.913-15.971 58.597-6.19 108.413-44.173 130.023-99.127 2.249-5.719 7.722-9.213 13.519-9.213 1.767 0 3.563 0.325 5.311 1.014 7.461 2.934 11.137 11.36 8.199 18.83-12.357 31.436-33.095 58.987-59.958 79.692v0z" />
<glyph unicode="&#xe905;" glyph-name="service" d="M861.34 486.613c-10.258 184.020-162.305 330.64-349.34 330.64s-339.082-146.010-349.34-330.64c-0.603-3.015-0.603-6.64-0.603-9.655v-97.139c0-48.268 39.216-87.484 87.484-87.484s87.484 39.216 87.484 87.484v97.139c0 48.268-39.216 87.484-87.484 87.484-12.67 0-24.737-3.015-35.598-7.243 38.613 127.913 157.474 221.434 297.454 221.434s259.444-93.521 297.454-221.434c-10.861 4.824-22.928 7.243-35.598 7.243-48.268 0-87.484-39.216-87.484-87.484v-97.139c0-46.459 36.201-84.469 82.057-87.484-35.598-52.489-86.881-93.521-147.216-116.449-10.861 22.928-34.392 38.010-60.938 38.010-37.407 0-68.181-30.171-68.181-68.181 0-37.407 30.171-68.181 68.181-68.181 34.392 0 62.747 25.34 67.578 58.526 84.469 29.561 154.459 91.109 194.881 170.144 23.531 15.685 38.613 42.238 38.613 72.402v97.139c1.206 4.824 0.603 7.846 0.603 10.861zM249.541 525.836c26.546 0 48.871-21.722 48.871-48.871v-97.139c0-26.546-21.722-48.871-48.871-48.871-26.546 0-48.871 21.722-48.871 48.871v97.139c0.603 27.149 22.325 48.871 48.871 48.871zM822.727 379.819c0-26.546-21.722-48.871-48.871-48.871-26.546 0-48.871 21.722-48.871 48.871v97.139c0 26.546 21.722 48.871 48.871 48.871 26.546 0 48.871-21.722 48.871-48.871v-97.139z" />
<glyph unicode="&#xe906;" glyph-name="suspension" d="M143.464 781.781v-667.008h737.075v667.008h-737.075zM860.676 134.082h-697.352v627.836h696.801l0.551-627.836zM629.513 310.627c0-64.901-52.612-117.513-117.513-117.513s-117.513 52.612-117.513 117.513c0 64.901 52.612 117.513 117.513 117.513s117.513-52.612 117.513-117.513zM628.962 690.749h-234.472v-234.472h234.472v234.472zM614.618 470.067h-206.338v206.338h206.338v-206.338z" />
<glyph unicode="&#xe907;" glyph-name="top" d="M773.596 759.544h-522.568c-11.239 0-19.982-8.743-19.982-19.982s8.743-19.982 19.982-19.982h522.568c11.239 0 19.982 8.743 19.982 19.982s-9.367 19.982-19.982 19.982zM533.854 673.383c-4.992 4.992-11.239 6.871-17.479 5.616-6.871 1.248-13.735-0.624-19.351-5.616l-199.785-179.186c-8.119-8.119-8.119-21.23 0-29.342s21.23-8.119 29.342 0l165.451 148.589v-456.389c0-11.239 8.743-19.982 19.982-19.982s19.982 8.743 19.982 19.982v462.636c0 0.624 0 1.248 0 1.872l166.699-149.22c8.119-8.119 20.606-8.119 28.718 0s8.119 20.606 0 28.718l-193.545 172.315z" />
<glyph unicode="&#xe908;" glyph-name="citylocation" d="M167.496 127.678h689.532v638.592h-689.532v-638.592zM187.452 746.314h649.095v-598.68h-649.095v598.68zM590.229 519.721v0 0l-289.133 130.040 130.038-289.136 289.134-130.040-130.039 289.136zM676.021 275.852l-224.032 100.759 123.274 123.275 100.759-224.033z" />
<glyph unicode="&#xe909;" glyph-name="vip-card" d="M877.445 124.928h-730.958c-44.78 0-81.217 36.438-81.217 81.201v487.172c0 44.762 36.437 81.201 81.217 81.201h730.958c44.777 0 81.214-36.439 81.214-81.201v-487.173c0-44.762-36.437-81.2-81.214-81.2zM146.487 742.008c-26.871 0-48.729-21.854-48.729-48.707v-487.173c0-26.88 21.857-48.738 48.729-48.738h730.958c26.87 0 48.726 21.858 48.726 48.738v487.173c0 26.854-21.856 48.707-48.726 48.707h-730.958zM790.817 465.947h-54.158c-38.815 0-70.381 31.564-70.381 70.377v54.119c0 38.8 31.567 70.379 70.381 70.379h54.158c38.816 0 70.381-31.579 70.381-70.379v-54.119c0-38.813-31.566-70.377-70.381-70.377zM736.658 628.328c-20.89 0-37.894-16.991-37.894-37.885v-54.119c0-20.909 17.004-37.897 37.894-37.897h54.158c20.89 0 37.895 16.989 37.895 37.897v54.119c0 20.894-17.005 37.885-37.895 37.885h-54.158zM487.601 336.030h-308.627c-8.972 0-16.244 7.264-16.244 16.241 0 8.971 7.271 16.255 16.244 16.255h308.627c8.967 0 16.242-7.284 16.242-16.255-0.001-8.976-7.276-16.241-16.242-16.241zM487.601 254.832h-308.627c-8.972 0-16.244 7.264-16.244 16.241 0 8.96 7.271 16.25 16.244 16.25h308.627c8.967 0 16.242-7.29 16.242-16.25-0.001-8.976-7.276-16.241-16.242-16.241z" />
<glyph unicode="&#xe90a;" glyph-name="community" horiz-adv-x="1072" d="M859.243 177.068c0 0-207.34 0-207.34 0s-88.51-105.068-88.51-105.068c0 0-88.51 105.068-88.51 105.068s-175.159 0-175.159 0c-38.62 0-69.94 31.32-69.94 69.94 0 0 0 419.639 0 419.639 0 38.62 31.32 69.94 69.94 69.94 0 0 559.512 0 559.512 0 38.62 0 69.94-31.32 69.94-69.94 0 0 0-419.639 0-419.639 0-38.62-31.32-69.94-69.94-69.94zM894.212 666.635c0 19.322-15.648 34.97-34.97 34.97 0 0-559.511 0-559.511 0-19.322 0-34.97-15.648-34.97-34.97 0 0 0-419.639 0-419.639 0-19.322 15.648-34.97 34.97-34.97 0 0 198.434 0.54 198.434 0.54s65.235-91.25 65.235-91.25c0 0 65.235 91.25 65.235 91.25s230.606-0.54 230.606-0.54c19.322 0 34.97 15.648 34.97 34.97 0 0 0 419.639 0 419.639zM754.339 439.563c-19.322 0-34.97 15.672-34.97 34.97 0 19.322 15.648 34.992 34.97 34.992s34.97-15.672 34.97-34.992c0-19.298-15.648-34.97-34.97-34.97zM579.498 439.563c-19.322 0-34.97 15.672-34.97 34.97 0 19.322 15.648 34.992 34.97 34.992s34.97-15.672 34.97-34.992c0-19.298-15.648-34.97-34.97-34.97zM404.65 439.563c-19.322 0-34.97 15.672-34.97 34.97 0 19.322 15.648 34.992 34.97 34.992s34.97-15.672 34.97-34.992c0-19.298-15.648-34.97-34.97-34.97zM736.855 788.836c-0.333 0-0.612 0.17-0.946 0.194 0 0-523.603 0-523.603 0-19.322 0-34.97-15.648-34.97-34.97 0 0 0-402.154 0-402.154s-0.031 0-0.031 0c-0.118-9.564-7.873-17.272-17.454-17.272s-17.322 7.712-17.454 17.272c0 0-0.031 0-0.031 0s0 402.154 0 402.154c0 38.62 31.32 69.94 69.94 69.94 0 0 524.543 0 524.543 0s0-0.17 0-0.17c9.658 0 17.485-7.827 17.485-17.507 0-9.658-7.827-17.485-17.485-17.485z" />
<glyph unicode="&#xe90b;" glyph-name="coupon" d="M832.595 89.288h-641.19c-38.885 0-70.504 31.619-70.504 70.504v154.209c0 24.354 15.452 45.536 38.578 52.597 20.568 6.344 38.987 19.442 51.983 36.736 13.405 17.907 20.466 39.192 20.466 61.602s-7.061 43.694-20.466 61.602c-12.996 17.293-31.415 30.392-51.983 36.736-23.024 7.163-38.578 28.243-38.578 52.597v154.414c0 38.885 31.619 70.504 70.504 70.504h641.19c38.885 0 70.504-31.619 70.504-70.504v-154.311c0-24.354-15.452-45.536-38.578-52.597-20.568-6.344-38.987-19.442-51.983-36.736-13.405-17.907-20.466-39.192-20.466-61.602s7.061-43.694 20.466-61.602c12.996-17.293 31.415-30.392 51.983-36.736 23.024-7.163 38.578-28.243 38.578-52.597v-154.311c0-38.885-31.619-70.504-70.504-70.504zM191.405 803.847c-18.521 0-33.666-15.042-33.666-33.666v-154.209c0-7.982 5.219-15.145 12.586-17.396 27.936-8.596 53.006-26.298 70.607-49.834 18.214-24.354 27.833-53.313 27.833-83.705 0-30.494-9.619-59.453-27.833-83.705-17.6-23.536-42.671-41.136-70.607-49.834-7.368-2.251-12.586-9.414-12.586-17.396v-154.311c0-18.521 15.042-33.666 33.666-33.666h641.19c18.521 0 33.666 15.042 33.666 33.666v154.209c0 7.982-5.219 15.145-12.586 17.396-27.936 8.596-53.006 26.298-70.607 49.834-18.214 24.354-27.833 53.313-27.833 83.705 0 30.494 9.619 59.453 27.833 83.705 17.6 23.536 42.671 41.238 70.607 49.834 7.368 2.251 12.586 9.414 12.586 17.396v154.414c0 18.521-15.042 33.666-33.666 33.666l-641.19-0.102zM650.757 403.231h-121.668v71.528h121.668c10.131 0 18.419 8.289 18.419 18.419s-8.289 18.419-18.419 18.419h-92.607l104.375 104.375c7.163 7.163 7.163 18.828 0 26.094-7.163 7.163-18.828 7.163-26.094 0l-124.227-124.329-124.329 124.329c-7.163 7.163-18.828 7.163-26.094 0s-7.163-18.828 0-26.094l104.375-104.375h-92.914c-10.131 0-18.419-8.289-18.419-18.419s8.289-18.419 18.419-18.419h119.008v-71.528h-119.008c-10.131 0-18.419-8.289-18.419-18.419s8.289-18.419 18.419-18.419h119.008v-99.975c0-10.131 8.289-18.419 18.419-18.419s18.419 8.289 18.419 18.419v99.975h121.668c10.131 0 18.419 8.289 18.419 18.419s-8.289 18.419-18.419 18.419z" />
<glyph unicode="&#xe90c;" glyph-name="notify" d="M905.111 157.645l-75.294 132.468v276.852c0 57.726-20.971 118.586-59.049 171.371-38.736 53.699-93.122 95.716-153.132 118.314-0.35 0.131-0.703 0.255-1.058 0.37-1.378 0.445-6.492 2.077-14.005 4.237v9.221c0 49.952-40.639 90.59-90.59 90.59s-90.59-40.639-90.59-90.59v-8.557c-6.999-1.999-11.434-3.422-11.944-3.588-0.264-0.084-0.526-0.175-0.787-0.27-60.927-22.061-116.24-64.034-155.754-118.187-38.794-53.164-60.155-114.572-60.155-172.915v-276.854l-80.572-141.806c-9.694-16.899-9.633-37.941 0.167-54.92 9.741-16.869 27.974-27.349 47.585-27.349h199.107c11.418-74.145 75.652-131.102 152.94-131.102s141.525 56.957 152.94 131.102h199.074c30.35 0 55.041 24.661 55.041 54.972 0 13.76-4.918 26.63-13.932 36.64zM511.985 913.779c23.138 0 42.093-18.242 43.246-41.096-4.853 0.917-9.768 1.759-14.655 2.47-2.094 0.304-4.187 0.321-6.228 0.077-0.843 0.124-1.701 0.252-2.57 0.385-6.041 0.914-12.888 1.943-20.525 1.943-7.63 0-14.473-1.033-20.513-1.941-0.739-0.11-1.469-0.222-2.188-0.327-2.117 0.285-4.285 0.288-6.46-0.016-4.455-0.626-8.917-1.355-13.316-2.154 1.367 22.649 20.221 40.659 43.211 40.659zM511.985-17.779c-51.128 0-94.002 35.905-104.803 83.815h209.61c-10.806-47.911-53.677-83.815-104.806-83.815zM864.001 113.323h-704.064c-2.773 0-5.313 1.423-6.632 3.704-1.408 2.437-1.446 5.407-0.054 7.834l83.708 147.32c2.024 3.559 3.086 7.584 3.086 11.681v283.105c0 102.336 79.195 208.22 184.289 246.482 3.455 1.092 30.634 9.53 58.048 14.038 1.632-0.18 3.295-0.191 4.967-0.017 3.689 0.375 7.119 0.892 10.436 1.394 5.031 0.759 9.377 1.413 13.459 1.413 4.090 0 8.438-0.656 13.471-1.414 3.313-0.499 6.74-1.017 10.426-1.393 1.513-0.154 3.019-0.16 4.496-0.029 28.452-4.765 57.484-13.849 61.866-15.244 103.241-39.137 181.022-144.46 181.022-245.226v-283.103c0-4.099 1.065-8.123 3.087-11.682l79.83-140.443c1.114-1.963 2.507-3.759 4.13-5.325 1.404-1.355 2.177-3.273 2.177-5.401-0.002-4.31-3.407-7.685-7.755-7.685z" />
<glyph unicode="&#xe90d;" glyph-name="heart" d="M737.925 847.703c119.231 0 221.383-87.95 237.602-204.584 11.313-81.026-11.238-149.29-68.821-208.731-121.165-125.029-338.488-342.798-380.826-385.181-4.342-4.355-9.307-5.27-12.681-5.27-3.39 0-8.333 0.914-12.667 5.27-95.274 95.662-268.253 269.585-368.271 370.382-44.924 45.267-71.356 93.871-80.795 148.54-16.887 97.843 29.554 197.009 115.597 246.758 36.957 21.388 78.536 32.69 120.25 32.69 60.801 0 119.387-23.633 164.936-66.558 20.1-18.943 40.063-24.7 56.907-24.7 21.668 0 38.184 9.526 43.155 12.748 10.659 6.946 20.932 14.1 31.1 21.169 18.314 12.713 35.553 24.729 51.927 32.968 32.22 16.249 66.761 24.499 102.587 24.499zM724.397 897.75c-43.379 0-87.514-9.762-129.398-30.872-29.382-14.816-55.745-35.784-85.112-54.955v0c0 0-1.907 1.495-3.653 3.14-57.805 54.47-131.153 82.583-205.339 82.583-51.099 0-102.603-13.342-149.699-40.579-108.198-62.58-165.78-185.936-144.516-309.028 12.211-70.721 46.649-129.184 96.414-179.373 94.024-94.738 256.626-258.255 346.187-348.192 17.688-17.737 40.789-26.58 63.911-26.58 23.102 0 46.175 8.815 63.833 26.503 91.965 92.048 261.118 262.082 358.699 362.757 68.835 71.049 98.831 158.773 84.971 258.38-21.222 152.381-154.785 256.216-296.298 256.216v0z" />
<glyph unicode="&#xe90e;" glyph-name="comment-bottom" d="M104.908 960h814.185c24.052-1.535 48.104-10.747 66.015-27.122 23.028-19.446 36.846-48.616 38.381-78.809v-544.496c-1.535-23.54-9.723-47.080-25.075-65.503-20.47-25.587-52.198-40.94-84.95-40.94-82.903 0-165.293 0-248.196 0-2.559 0-4.606-3.070-6.653-4.606-93.649-84.438-187.81-168.364-281.971-252.802-3.582-3.070-7.164-5.629-10.235-9.723h-0.512c0 89.555 0 178.599 0 268.154-76.25-0.512-153.011-0.512-229.261-1.023-16.376 0-32.752-1.535-48.616 2.047-26.611 5.629-51.174 21.493-67.038 43.498-12.794 17.399-19.446 37.869-20.982 59.362v546.031c2.047 29.681 15.352 58.339 37.357 77.785 18.423 16.888 42.987 26.611 67.55 28.146zM81.367 848.952c0-177.575 0-355.662 0-533.237-0.512-12.282 7.164-24.052 18.423-28.658 7.164-3.070 14.841-2.047 22.517-2.047 108.49 0.512 216.98 1.023 325.469 1.535 0-55.78 0-112.072 0-167.852 60.898 54.245 121.283 109.001 182.181 163.246 1.535 1.023 3.070 3.582 5.117 3.070 93.137 0 186.275 0 278.901 0 15.864 0 29.169 13.817 29.169 29.681 0 178.087 0 356.686 0 534.773 0 11.77-7.164 23.54-17.911 28.146-6.141 3.070-12.794 2.559-18.935 2.559-264.572 0-529.655 0-794.227 0-16.888 0-31.216-15.352-30.705-31.216zM251.778 662.165c14.841 3.070 30.193 1.535 44.010-4.606 17.399-7.164 31.728-21.493 39.916-37.869 10.235-20.47 11.258-45.033 3.070-66.527-6.653-16.888-18.935-31.728-34.799-40.94-15.352-8.7-33.775-11.77-51.174-8.7-18.423 3.582-34.799 14.329-46.057 28.658-11.77 14.841-17.399 33.775-16.888 52.71 0.512 20.47 8.7 40.94 23.028 55.268 10.235 11.258 24.052 19.446 38.893 22.005zM497.415 662.165c17.911 3.582 37.357 0.512 53.221-9.211 14.329-8.7 25.587-21.493 32.24-36.846 7.676-17.399 8.7-37.869 3.582-56.292-5.629-19.958-18.935-37.357-36.846-47.592-15.864-9.211-34.799-12.282-52.71-8.188-19.446 4.094-37.357 16.376-48.104 33.263-18.423 26.611-18.423 64.48-0.512 91.602 11.258 16.888 29.169 29.681 49.127 33.263zM744.076 662.677c15.864 3.070 32.752 0.512 47.080-6.653 15.352-7.676 28.146-20.47 35.31-35.822 10.747-22.005 11.258-48.104 1.535-70.621-7.676-17.399-21.493-32.24-38.893-40.428-15.864-7.676-34.799-8.7-51.686-4.094-19.446 5.629-35.822 18.935-46.057 36.846-16.376 28.146-13.817 65.503 5.629 91.602 11.77 14.841 28.658 25.587 47.080 29.169z" />
<glyph unicode="&#xe90f;" glyph-name="comment-right" d="M14.848 167.424v558.080c1.536 20.48 9.216 41.472 23.040 56.832 16.896 19.968 41.472 31.744 67.584 32.768h761.344c19.968-1.536 40.448-8.192 56.32-21.504 22.016-17.408 35.328-44.544 35.328-72.704 0-71.168 0-84.48 0-155.648 0-2.048 2.56-4.096 4.096-5.632-4.608 4.608 202.752-122.88 202.752-122.88v-0.512c0 0.512-207.872-116.224-207.872-116.224 0.512-65.536 0.512-59.392 1.024-124.416 0-13.824 1.536-28.16-1.536-41.472-4.608-23.040-18.432-44.032-37.376-57.344-14.848-10.752-32.256-16.896-50.688-17.92h-762.88c-25.6 1.536-50.176 13.312-66.56 32.256-14.848 13.824-23.040 34.816-24.576 56.32zM110.592 146.944c152.576 0 599.552 0 751.616 0 10.752-0.512 20.48 6.144 24.576 15.872 2.56 6.144 1.536 12.8 1.536 19.456-0.512 93.184-1.024 87.552-1.536 180.736l148.48 76.8-148.48 77.312c0 1.536 1.024 123.904 1.024 203.264 0 13.824-11.776 25.088-25.6 25.088-152.576 0-600.064 0-753.152 0-10.24 0-19.968-6.144-24.064-15.36-2.56-5.12-2.048-10.752-2.048-16.384 0-226.816 0-313.856 0-541.184 0.512-13.824 13.824-26.112 27.648-25.6zM349.696 527.36c14.848 3.072 30.208 1.536 44.032-4.608 17.408-7.168 31.744-21.504 39.936-37.888 10.24-20.48 11.264-45.056 3.072-66.56-6.656-16.896-18.944-31.744-34.816-40.96-15.36-8.704-33.792-11.776-51.2-8.704-18.432 3.584-34.816 14.336-46.080 28.672-11.776 14.848-17.408 33.792-16.896 52.736 0.512 20.48 8.704 40.96 23.040 55.296 10.24 11.264 24.064 19.456 38.912 22.016zM595.456 527.36c17.92 3.584 37.376 0.512 53.248-9.216 14.336-8.704 25.6-21.504 32.256-36.864 7.68-17.408 8.704-37.888 3.584-56.32-5.632-19.968-18.944-37.376-36.864-47.616-15.872-9.216-34.816-12.288-52.736-8.192-19.456 4.096-37.376 16.384-48.128 33.28-18.432 26.624-18.432 64.512-0.512 91.648 11.264 16.896 29.184 29.696 49.152 33.28z" />
<glyph unicode="&#xe910;" glyph-name="drag" d="M829.906 718.080c0-11.31-9.17-20.48-20.48-20.48h-595.087c-11.31 0-20.48 9.17-20.48 20.48v15.36c0 11.31 9.17 20.48 20.48 20.48h595.087c11.31 0 20.48-9.17 20.48-20.48v-15.36zM829.906 419.41c0-11.31-9.17-20.48-20.48-20.48h-595.087c-11.31 0-20.48 9.17-20.48 20.48v15.36c0 11.31 9.17 20.48 20.48 20.48h595.087c11.31 0 20.48-9.17 20.48-20.48v-15.36zM829.906 134.467c0-11.31-9.17-20.48-20.48-20.48h-595.087c-11.31 0-20.48 9.17-20.48 20.48v15.36c0 11.315 9.17 20.485 20.48 20.485h595.087c11.31 0 20.48-9.17 20.48-20.485v-15.36z" />
<glyph unicode="&#xe911;" glyph-name="cross" d="M557.312 434.752l265.28 263.904c12.544 12.48 12.608 32.704 0.128 45.248-12.512 12.576-32.704 12.608-45.248 0.128l-265.344-263.936-263.040 263.84c-12.448 12.48-32.704 12.544-45.248 0.064-12.512-12.48-12.544-32.736-0.064-45.28l262.976-263.776-265.152-263.744c-12.544-12.48-12.608-32.704-0.128-45.248 6.24-6.272 14.464-9.44 22.688-9.44 8.16 0 16.32 3.104 22.56 9.312l265.216 263.808 265.44-266.24c6.24-6.272 14.432-9.408 22.656-9.408 8.192 0 16.352 3.136 22.592 9.344 12.512 12.48 12.544 32.704 0.064 45.248l-265.376 266.176z" />
<glyph unicode="&#xe912;" glyph-name="album" d="M635.392 416.256c38.4 0 69.12 31.232 69.12 69.12 0 38.4-31.232 69.12-69.12 69.12s-69.12-31.232-69.12-69.12c0-38.4 31.232-69.12 69.12-69.12zM635.392 539.648c29.696 0 54.272-24.064 54.272-54.272 0-29.696-24.064-54.272-54.272-54.272s-54.272 24.064-54.272 54.272c0 29.696 24.576 54.272 54.272 54.272zM769.024 697.856h-64v59.392h-528.896v-499.2h59.392v-59.392h64v-59.392h284.672l0.512-0.512 0.512 0.512h262.656v499.2h-78.848v59.392zM235.008 277.504h-39.424v459.776h489.472v-39.424h-450.048v-420.352zM299.52 218.112h-44.544v459.776h494.080v-39.424h-449.536v-420.352zM828.416 618.496v-347.648l-78.848 83.456 3.072 4.096-15.872 9.728-1.024 1.024-104.448-136.704-163.328 194.56 3.072 5.632-15.872 9.728-1.024 1.024-3.072-6.144-6.656-10.752 1.024-1.024-125.952-259.072v452.096h508.928z" />
<glyph unicode="&#xe913;" glyph-name="audio" d="M667.136 660.48l-262.144-79.36 2.56-10.24h-3.072v-271.872c-15.36 4.608-35.328 3.584-55.296-4.096-35.84-13.824-57.344-45.056-48.128-69.12s45.568-32.256 81.408-17.92c27.648 10.752 46.592 31.232 49.664 51.2h3.072v299.008l239.104 72.704-7.168 29.696zM644.096 384.512c-15.36 4.608-35.328 3.584-55.296-4.096-35.84-13.824-57.344-45.056-48.128-69.12s45.568-32.256 81.408-17.92c27.648 10.752 46.592 31.232 49.664 51.2h3.072v218.112h-30.72v-178.176zM146.432 116.736h731.648v662.528h-731.648v-662.528zM165.888 759.296h691.712v-622.592h-691.712v622.592z" />
<glyph unicode="&#xe914;" glyph-name="plus" d="M923.318 483.469h-375.859v376.879c0 19.58-15.875 35.462-35.46 35.462-19.587 0-35.465-15.88-35.465-35.462v-376.879h-377.902c-19.587 0-35.462-15.877-35.462-35.467 0-19.585 15.875-35.46 35.462-35.46h377.902v-376.879c0-19.59 15.877-35.47 35.465-35.47 19.585 0 35.46 15.88 35.46 35.47v376.878h375.859c19.585 0 35.46 15.88 35.46 35.46 0.005 19.59-15.875 35.468-35.46 35.468z" />
<glyph unicode="&#xe915;" glyph-name="bbs" d="M744.448 544.256c0-23.187-18.797-41.984-41.984-41.984s-41.984 18.797-41.984 41.984c0 23.187 18.797 41.984 41.984 41.984s41.984-18.797 41.984-41.984zM775.68 719.872h-403.968c-17.92 0-32.768-14.336-32.768-31.744v-291.84c0-17.92 14.848-31.744 32.768-31.744h140.288l59.392-69.12 59.392 69.12h144.896c17.92 0 32.768 14.336 32.768 31.744v291.84c0 17.408-14.848 31.744-32.768 31.744zM788.992 394.24c0-6.144-5.12-10.752-11.264-10.752h-152.064l-54.272-64-54.272 64h-146.944c-6.144 0-11.264 4.608-11.264 10.752v295.424c0 6.144 5.12 10.752 11.264 10.752h407.552c6.144 0 11.264-4.608 11.264-10.752v-295.424zM615.936 544.256c0-23.187-18.797-41.984-41.984-41.984s-41.984 18.797-41.984 41.984c0 23.187 18.797 41.984 41.984 41.984s41.984-18.797 41.984-41.984zM487.424 544.256c0-23.187-18.797-41.984-41.984-41.984s-41.984 18.797-41.984 41.984c0 23.187 18.797 41.984 41.984 41.984s41.984-18.797 41.984-41.984zM670.208 275.968c0-6.144-5.12-10.752-11.264-10.752h-157.184l-49.152-59.392-49.152 59.392h-157.184c-6.144 0-11.264 5.12-11.264 10.752v299.52c0 6.144 5.12 10.752 11.264 10.752h57.856v19.968h-55.296c-18.432 0-33.28-14.848-33.28-32.768v-296.448c0-17.92 14.848-32.768 33.28-32.768h145.408l58.368-68.608 58.368 68.608h145.408c18.432 0 33.28 14.848 33.28 32.768v27.648h-19.968l0.512-28.672z" />
<glyph unicode="&#xe916;" glyph-name="top-nav" d="M739.328 606.208c0-11.028-8.94-19.968-19.968-19.968s-19.968 8.94-19.968 19.968c0 11.028 8.94 19.968 19.968 19.968s19.968-8.94 19.968-19.968zM794.112 606.208c0-11.028-8.94-19.968-19.968-19.968s-19.968 8.94-19.968 19.968c0 11.028 8.94 19.968 19.968 19.968s19.968-8.94 19.968-19.968zM292.352 675.328l-67.072-66.56 67.072-67.072 12.288 10.24-57.344 56.832 57.344 56.832zM685.056 606.208c0-11.028-8.94-19.968-19.968-19.968s-19.968 8.94-19.968 19.968c0 11.028 8.94 19.968 19.968 19.968s19.968-8.94 19.968-19.968zM146.432 779.264v-662.528h731.648v662.528h-731.648zM165.888 759.296h691.712v-301.568h-691.712v301.568zM857.6 136.704h-691.2v301.568h691.712v-301.568z" />
<glyph unicode="&#xe917;" glyph-name="colorstyle" d="M980.538 666.181l-368.12-365.749c-13.335-13.335-98.44-66.74-98.44-66.74s51.020 85.105 64.35 98.44l368.119 365.749c13.335 13.332 34.95 29.877 48.29 16.565 13.31-13.335-0.89-34.953-14.199-48.265zM706.788 584.056c0-25.122-20.39-45.51-45.51-45.51-25.125 0-45.515 20.387-45.515 45.51s20.39 45.512 45.515 45.512c25.12 0 45.51-20.39 45.51-45.512zM228.919 424.771c-25.12 0-45.51 20.385-45.51 45.507s20.39 45.512 45.51 45.512c25.122 0 45.512-20.39 45.512-45.512s-20.389-45.507-45.512-45.507zM297.187 584.056c0 25.122 20.39 45.512 45.51 45.512 25.122 0 45.512-20.39 45.512-45.512s-20.39-45.51-45.512-45.51c-25.12 0-45.51 20.365-45.51 45.51zM456.476 629.568c0 25.122 20.387 45.51 45.51 45.51s45.512-20.387 45.512-45.51-20.39-45.512-45.512-45.512c-25.122 0-45.51 20.367-45.51 45.512zM464.714 766.055c-206.212-22.984-397.357-182.704-397.357-393.194 0-75.865 41.96-70.155 115.53-60.89 49.060 6.165 110.157-16.16 120.147-97.44 6.145-49.63 73.022-87.95 173.922-87.95 185.502 0 357.717 140.81 384.771 319.372 0.89 5.87 0.91 11.262 1.46 16.975l48.010 48.015c0.59-16.795 0.23-34.020-2-52.065-24.17-194.107-195.56-375.467-429.194-375.467-90.087 0-194.537 35.86-210.737 90.66-13.86 46.92-19.137 113.71-85.88 98.46-83.605-19.070-157.105 8.97-159.29 83.925-7.736 267.537 206.918 425.687 443.758 452.789 148.025 16.907 299.734-31.22 381.859-132.37l-33.385-33.36c-73.29 96.598-217.335 137.49-351.614 122.54z" />
<glyph unicode="&#xe918;" glyph-name="breakline" d="M146.432 457.728h731.648v-19.968h-731.648v19.968zM828.416 166.4h-632.832v202.752h-49.152v-252.416h731.136v252.416h-49.152zM146.432 526.848h49.152v202.752h632.832v-202.752h49.152v252.416h-731.136z" />
<glyph unicode="&#xe919;" glyph-name="addfolder" d="M1018.88 706.56c0 19.456-23.552 41.984-40.448 41.984h-524.8l-40.448 83.968c-7.168 17.408-23.552 41.984-40.448 41.984h-202.752c-17.408 0-32.768-24.576-40.448-41.984l-40.448-83.968h-40.96c-17.408 0-40.448-22.528-40.448-41.984v-628.224c0-19.456 23.552-41.984 40.448-41.984l971.776-6.144-1.024 676.352zM921.088 115.2l-788.48 6.144c-17.408 0-40.448 22.528-40.448 41.984v459.264c0 19.456 23.552 41.984 40.448 41.984h-1.536l40.448 83.968c8.192 17.408 23.552 41.984 40.448 41.984h118.784c17.408 0 33.28-24.576 40.448-41.984l40.448-83.968h484.352c17.408 0 40.448-22.528 40.448-41.984l0.512-506.88-15.872-0.512zM671.232 410.112h-115.2v115.712c0 6.144-4.608 10.752-10.752 10.752h-62.464c-6.144 0-10.752-4.608-10.752-10.752v-115.712h-115.712c-6.144 0-11.264-5.12-11.264-11.264v-61.44c0-6.144 5.12-11.264 11.264-11.264h115.2v-115.712c0-6.144 4.608-10.752 10.752-10.752h62.464c6.144 0 10.752 4.608 10.752 10.752v115.712h115.712c6.144 0 11.264 5.12 11.264 11.264v61.44c0 6.656-5.12 11.264-11.264 11.264z" />
<glyph unicode="&#xe91a;" glyph-name="button" d="M744.96 161.792h24.064v131.072c0 0 0 36.864-17.92 53.76-20.48 18.944-59.904 17.92-59.904 17.92h-101.376v91.648c0 0-1.024 71.68-65.536 71.68-59.904 0-59.904-71.68-59.904-71.68v-168.96l-41.984 35.84c0 0-61.952 32.256-95.232-11.776-27.136-36.352-22.016-108.032 125.44-184.832 17.408-9.216 17.92 17.92 17.92 17.92s-180.736 93.696-119.296 154.624c45.568 45.056 137.216-77.312 137.216-77.312v216.576c0 0 0 65.536 35.84 65.536 41.984 0 41.984-65.536 41.984-65.536v-97.792h113.152c0 0 40.448 1.024 53.76-11.776 13.824-13.824 11.776-41.984 11.776-41.984v-124.928zM393.216 450.56h-212.48v301.568h662.528v-301.568h-182.784v-19.968h202.24v340.992h-701.44v-340.992h231.936zM711.68 489.984h31.232c0.512 6.144 1.024 12.288 1.024 18.432 0 112.64-95.232 203.776-214.528 203.776s-215.552-91.136-215.552-203.776c0-6.144 0.512-12.288 1.024-18.432h86.016c-0.512 5.12-1.536 8.704-1.536 13.824 0 66.048 56.32 119.296 125.952 119.296s124.416-52.736 124.416-118.272c0-5.12-0.512-9.728-1.024-14.848h62.976zM617.984 489.984c1.024 4.608 1.536 9.728 1.536 14.848 0 49.152-40.96 88.576-93.184 88.576s-94.208-39.936-94.208-89.6c0-5.12 0.512-8.704 1.536-13.824h25.088c-0.512 2.56-0.512 5.632-0.512 8.192 0 36.352 30.72 66.048 68.608 66.048s68.608-29.696 68.608-66.048c0-2.56 0-5.632-0.512-8.192h23.040z" />
<glyph unicode="&#xe91b;" glyph-name="addpage" d="M325.632 906.24l-209.92-208.384h209.92zM406.528 949.76v-284.672c0-27.648-24.576-50.176-51.2-50.176h-281.6v-668.672h876.032v1001.984l-543.232 1.536zM866.304 30.208h-709.12v500.736h281.6c27.136 0 51.2 22.528 51.2 50.176v284.672l376.32-1.536v-834.048zM377.344 363.52c-6.144 0-11.264-5.12-11.264-11.264v-60.416c0-6.144 5.12-11.264 11.264-11.264h114.176v-114.688c0-6.144 4.608-10.752 10.752-10.752h61.952c6.144 0 10.752 4.608 10.752 10.752v114.688h114.176c6.144 0 11.264 5.12 11.264 11.264v60.416c0 6.144-5.12 11.264-11.264 11.264h-114.176v114.688c0 6.144-4.608 10.752-10.752 10.752h-61.952c-6.144 0-10.752-4.608-10.752-10.752v-114.688h-114.176z" />
<glyph unicode="&#xe91c;" glyph-name="backward" d="M4.608 404.48l483.328-410.624v237.568c0 0 119.808 18.432 180.736 33.792 102.4 25.088 159.232 84.48 159.232 84.48 60.416 42.496 134.144 156.16 164.864 292.864s25.6 259.072 25.6 259.072-39.936-74.752-55.808-101.888c-16.384-26.624-109.568-136.704-214.528-194.048-105.472-57.344-260.096-31.232-260.096-31.232v238.080l-483.328-408.064zM751.104 553.472c136.704 58.88 220.672 185.344 219.136 182.272-10.752-20.48-13.824-208.896-160.256-345.6-142.848-132.608-374.784-98.304-374.784-105.472 0-89.6 0-158.72 0-158.72l-347.648 277.504 347.648 276.992c0 0 0-70.144 0-160.256 0 0 192.512-19.456 315.904 33.28z" />
<glyph unicode="&#xe91d;" glyph-name="carousel" d="M463.872 178.688c0-24.576 19.968-44.544 44.544-44.544s44.544 19.968 44.544 44.544-19.968 44.544-44.544 44.544c-24.576 0-44.544-19.968-44.544-44.544zM543.744 178.688c0-19.456-15.872-34.816-34.816-34.816-19.456 0-34.816 15.872-34.816 34.816s15.872 34.816 34.816 34.816 34.816-15.36 34.816-34.816zM551.424 539.648c38.4 0 69.12 31.232 69.12 69.12 0 38.4-31.232 69.12-69.12 69.12-38.4 0-69.12-31.232-69.12-69.12 0-38.4 31.232-69.12 69.12-69.12zM551.424 663.040c29.696 0 54.272-24.064 54.272-54.272 0-29.696-24.064-54.272-54.272-54.272-29.696 0-54.272 24.064-54.272 54.272 0 29.696 24.576 54.272 54.272 54.272zM314.368 178.688c0-24.576 19.968-44.544 44.544-44.544s44.544 19.968 44.544 44.544-19.968 44.544-44.544 44.544-44.544-19.968-44.544-44.544zM393.728 178.688c0-19.456-15.872-34.816-34.816-34.816s-34.816 15.872-34.816 34.816 15.872 34.816 34.816 34.816 34.816-15.36 34.816-34.816zM699.904 178.688c0-24.601-19.943-44.544-44.544-44.544s-44.544 19.943-44.544 44.544c0 24.601 19.943 44.544 44.544 44.544s44.544-19.943 44.544-44.544zM808.448 761.856h-592.896v-499.2h284.672l0.512-0.512 0.512 0.512h307.2v499.2zM788.992 390.144l-121.344 90.112 1.024 1.024-14.336 8.704-1.536 1.024-0.512 0.512-104.448-136.704-163.84 195.072 3.072 5.632-15.872 9.728-1.024 1.024-3.072-6.144-6.656-10.752 1.024-1.024-126.464-259.072v452.608h553.472v-351.744h0.512z" />
<glyph unicode="&#xe91e;" glyph-name="arrow-right" d="M671.232 450.56l-414.208 411.136c-17.92 19.456-17.92 50.688 0 70.144s47.104 19.456 65.024 0l445.44-444.416c9.216-10.24 13.824-23.552 13.312-36.864 0.512-13.312-3.584-26.624-13.312-36.864l-445.44-444.416c-17.92-19.456-47.104-19.456-65.024 0s-17.92 50.688 0 70.144l414.208 411.136z" />
<glyph unicode="&#xe91f;" glyph-name="collect" d="M1018.88 567.296l-349.184 53.76-157.696 334.848-157.184-335.36-349.184-53.248 252.928-259.584-59.904-367.616 313.856 174.080 313.856-174.080-59.904 367.616 252.416 259.584zM512 207.872l-200.192-110.592 26.624 228.864-191.488 197.12 264.704 35.328 100.352 212.48 99.84-213.504 257.536-42.496-188.416-186.88 54.272-252.928-223.232 132.608z" />
<glyph unicode="&#xe920;" glyph-name="classify" d="M146.432 116.736h731.648v662.528h-731.648v-662.528zM165.888 759.296h691.712v-622.592h-691.712v622.592zM569.344 489.984h-113.664l21.504-36.864h-167.936v-19.968h179.2l24.064-41.472 24.064 41.472h178.176v19.968h-166.912zM561.664 304.64h-99.328v-39.424h-153.088v-19.968h153.088v-39.424h99.328v39.424h153.088v19.968h-153.088zM512 685.056c-25.088 0-45.568-16.896-52.224-39.424h-150.528v-19.968h148.48c2.56-27.648 25.6-49.664 54.272-49.664 28.16 0 51.712 21.504 54.272 49.664h148.48v19.968h-150.528c-6.656 23.040-27.136 39.424-52.224 39.424z" />
<glyph unicode="&#xe921;" glyph-name="config" d="M513.344 615.586c-90.56 0-164.225-73.632-164.225-164.16 0-90.53 73.665-164.195 164.225-164.195s164.19 73.665 164.19 164.195c-0.001 90.528-73.631 164.16-164.19 164.16zM513.344 341.472c-60.64 0-109.952 49.315-109.952 109.955s49.342 109.95 109.952 109.95c60.605 0 109.95-49.31 109.95-109.95s-49.31-109.955-109.95-109.955zM861.308 573.408h-15.87l-1.25 3.298-4.415-1.92 3.84 3.168c-2.785 7.232-5.345 13.472-7.905 19.102l-1.28 2.85 11.235 11.262c21.055 21.025 32.67 49.025 32.67 78.785s-11.585 57.76-32.67 78.815l-14.88 14.912c-21.055 21.055-49.055 32.64-78.85 32.64-29.76 0-57.76-11.585-78.815-32.64l-11.23-11.265-2.85 1.28c-6.080 2.753-12.865 5.537-20.735 8.48l-2.915 1.12v16c0 61.472-50.015 111.457-111.485 111.457h-21.090c-61.47 0-111.487-50.017-111.487-111.457v-16l-2.913-1.087c-7.84-2.942-14.622-5.76-20.735-8.512l-2.88-1.247-11.232 11.232c-21.055 21.055-49.055 32.64-78.815 32.64s-57.76-11.585-78.817-32.64l-14.942-14.912c-21.057-21.055-32.64-49.022-32.64-78.815 0-29.76 11.582-57.76 32.672-78.817l11.23-11.262-1.28-2.817c-2.56-5.663-5.055-11.71-7.935-19.167l-1.792-4.48h-15.902c-61.472 0-111.49-50.015-111.49-111.455v-21.087c0-61.475 50.017-111.455 111.49-111.455h15.87l1.792-4.545c2.785-7.265 5.345-13.505 7.905-19.135l1.28-2.82-11.232-11.26c-21.055-21.060-32.64-49.025-32.64-78.82 0-29.79 11.585-57.76 32.64-78.815l14.912-14.91c21.055-21.055 49.055-32.64 78.815-32.64s57.76 11.585 78.817 32.64l11.262 11.23 2.848-1.28c6.112-2.75 12.897-5.535 20.737-8.48l2.913-1.12v-15.965c0-61.475 50.015-111.46 111.487-111.46h21.087c61.47 0 111.49 50.020 111.49 111.46v15.965l2.91 1.12c7.87 2.945 14.655 5.73 20.735 8.48l2.815 1.28 11.265-11.23c21.055-21.055 49.025-32.64 78.815-32.64 29.795 0 57.795 11.585 78.85 32.64l14.91 14.91c21.060 21.025 32.675 49.025 32.675 78.815 0 29.795-11.585 57.795-32.675 78.82l-11.23 11.26 1.28 2.85c2.56 5.63 5.12 11.905 7.935 19.17l-4.48 1.725 5.215-0.065 1.060 2.82h15.87c61.47 0 111.49 50.015 111.49 111.455v21.087c0.030 61.438-49.985 111.452-111.46 111.452zM916.028 490.721v0 0 0zM782.688 758.495v0 0 0zM111.135 411.231v0 0 0zM205.824 182.817v0 0 0zM472.224 49.762v0 0 0zM552.829 48.897v0 0 0zM918.558 440.866c0-3.65-0.385-7.395-1.15-11.17-0.26-1.31-0.64-2.4-0.93-3.325l-0.67-2.24c-0.385-1.44-0.835-3.105-1.54-4.835-0.735-1.79-1.63-3.36-2.845-5.6l-0.575-1.085c-0.385-0.74-0.835-1.6-1.44-2.56-1.57-2.435-3.33-4.58-5.345-6.88-0.225-0.29-0.545-0.705-0.96-1.155-1.955-2.080-4.195-4.095-7.555-6.72-8.38-6.305-18.46-10.145-29.020-11.135-0.545-0.030-1.090-0.095-1.7-0.19-0.96-0.13-2.14-0.29-3.485-0.29h-56.195l-0.895-3.65c-7.040-28.445-18.88-56.445-35.2-83.23l-1.985-3.23 40.26-40.26c8.735-8.735 14.27-20 16.095-33.405 0.445-3.425 0.575-6.4 0.48-9.12-0.035-0.675-0.095-1.25-0.195-2.305-0.16-2.37-0.415-5.12-1.020-7.87-0.225-1.025-0.545-1.92-0.77-2.66l-0.705-2.43c-0.445-1.47-0.925-3.135-1.695-4.96-0.67-1.665-1.505-3.070-2.785-5.345l-0.735-1.345c-0.385-0.765-0.865-1.76-1.535-2.75-2.145-3.2-4.545-6.11-7.105-8.705l-14.945-14.91c-2.59-2.56-5.47-4.96-8.735-7.135-0.99-0.675-1.92-1.12-2.655-1.505l-1.345-0.705 2.37-4.16-3.555 3.49c-1.245-0.705-2.655-1.505-4.285-2.18-1.635-0.7-3.17-1.15-4.77-1.6l1.345-4.605-2.785 4.19-1.185-0.385c-0.67-0.22-1.565-0.51-2.59-0.7-2.815-0.64-5.57-0.9-7.65-1.060l-4.385-0.255c-2.24 0-4.67 0.195-8.19 0.61-12.545 1.76-23.775 7.295-32.51 16l-40.195 40.225-3.23-1.985c-26.85-16.385-54.85-28.255-83.295-35.265l-3.65-0.895v-56.065c0-1.41-0.16-2.655-0.29-3.55l-0.19-1.54c-0.96-10.655-4.8-20.7-11.65-29.79-2.080-2.69-4.095-4.93-6.24-6.91-0.445-0.42-0.83-0.74-1.695-1.38-1.885-1.63-4-3.36-6.335-4.895-0.895-0.575-1.76-1.025-2.75-1.535l-1.475-0.77c-1.47-0.83-3.135-1.76-5.085-2.59-1.7-0.67-3.33-1.12-5.86-1.825l-1.34-0.415c-0.835-0.29-1.89-0.64-3.14-0.865-3.71-0.735-7.485-1.12-11.2-1.12h-21.085c-3.712 0-7.457 0.385-11.2 1.12-1.217 0.255-2.24 0.61-3.33 0.96l-2.27 0.675c-1.41 0.38-3.040 0.83-4.8 1.535-1.89 0.8-3.552 1.725-5.76 2.945l-1.090 0.575c-0.67 0.32-1.503 0.735-2.367 1.345-2.495 1.6-4.607 3.36-6.815 5.28-0.32 0.255-0.767 0.575-1.312 1.085-2.080 1.955-4.128 4.195-6.753 7.615-6.272 8.385-10.112 18.4-11.072 28.93l-0.19 1.63c-0.13 0.96-0.32 2.18-0.32 3.555v56.030l-3.65 0.895c-28.447 7.040-56.48 18.915-83.295 35.265l-3.232 1.985-40.127-40.29c-8.735-8.7-19.967-14.24-33.312-16.095-2.72-0.32-5.12-0.51-7.36-0.51l-4.095 0.225c-2.337 0.19-5.087 0.445-7.967 1.085-0.992 0.195-1.857 0.48-2.56 0.705l-1.41 0.415-1.31-4.605v4.99c-1.41 0.415-3.010 0.865-4.705 1.6-1.665 0.67-3.135 1.535-5.44 2.85l-1.407 0.735c-0.768 0.385-1.698 0.865-2.658 1.47-3.167 2.145-6.11 4.545-8.702 7.105l-14.912 14.91c-2.592 2.625-4.96 5.54-7.105 8.77-0.67 0.99-1.15 1.985-1.822 3.265l-0.992 1.79c-0.735 1.315-1.568 2.755-2.305 4.515-0.735 1.76-1.215 3.39-1.63 4.86l-0.77 2.625c-0.223 0.675-0.51 1.505-0.702 2.435-0.607 2.72-0.833 5.44-1.152 8.895l-0.095 1.28c-0.098 2.785 0.030 5.76 0.575 10.11 1.76 12.515 7.295 23.745 16 32.45l40.255 40.255-1.983 3.23c-16.32 26.785-28.16 54.785-35.232 83.235l-0.895 3.645h-56.16c-1.377 0-2.592 0.16-3.65 0.32l-0.64-4.735-0.8 4.93c-10.687 0.96-20.767 4.8-29.822 11.645-2.625 2.020-4.865 4.065-6.817 6.115-0.448 0.48-0.768 0.895-1.47 1.825-1.537 1.76-3.297 3.9-4.897 6.365-0.542 0.8-0.927 1.57-1.28 2.21l-4.382-1.955 3.775 3.14-0.575 1.055c-0.77 1.405-1.665 2.975-2.432 4.83-0.705 1.73-1.152 3.36-1.825 5.825l-0.415 1.345c-0.287 0.865-0.64 1.95-0.897 3.23-0.735 3.68-1.15 7.425-1.15 11.17v21.087c0 3.742 0.382 7.455 1.15 11.167 0.257 1.313 0.64 2.4 0.93 3.327l0.702 2.337c0.385 1.408 0.833 3.040 1.505 4.702 0.735 1.793 1.6 3.327 2.88 5.665l0.575 1.12c0.353 0.672 0.8 1.567 1.407 2.527 1.537 2.4 3.265 4.415 5.41 7.008 0.19 0.257 0.48 0.607 0.895 1.057 1.952 2.11 4.192 4.127 7.52 6.72 8.385 6.302 18.465 10.142 29.12 11.102l1.567 0.193c0.96 0.128 2.178 0.32 3.552 0.32h56.192l0.895 3.647c7.040 28.48 18.88 56.447 35.2 83.232l1.985 3.232-40.192 40.032c-8.705 8.702-14.24 19.935-16.095 33.47-0.45 3.36-0.577 6.337-0.48 9.090l0.19 2.24c0.225 2.495 0.45 5.182 1.057 7.967 0.193 0.992 0.512 1.887 0.702 2.592l0.832 2.782c0.418 1.378 0.865 2.945 1.538 4.545 0.702 1.662 1.535 3.167 2.302 4.447l0.607 1.12-4.16 2.273 4.865-1.058c0.385 0.77 0.865 1.73 1.535 2.753 2.080 3.167 4.48 6.080 7.105 8.705l14.88 14.912c2.655 2.59 5.567 4.99 8.735 7.135 0.992 0.64 1.952 1.12 2.912 1.632l2.145 1.182c1.312 0.705 2.782 1.537 4.447 2.24 1.727 0.738 3.36 1.217 4.673 1.6l2.88 0.865c0.673 0.193 1.473 0.48 2.495 0.673 2.818 0.64 5.633 0.862 8.512 1.087 0.415 0.033 0.895 0.095 1.6 0.128l1.695 0.033c2.305 0 4.705-0.16 8.417-0.607 12.512-1.76 23.742-7.297 32.447-16l40.192-40.225 3.232 1.985c26.75 16.352 54.782 28.222 83.295 35.262l3.647 0.898v56.095c0 1.408 0.16 2.658 0.288 3.585l0.192 1.503c0.96 10.657 4.8 20.705 11.647 29.792 2.080 2.657 4.097 4.927 6.24 6.912 0.48 0.447 0.898 0.767 1.665 1.375 1.92 1.632 4 3.392 6.4 4.897 0.865 0.575 1.695 0.992 2.847 1.6l1.217 0.64c1.503 0.832 3.23 1.822 5.182 2.622 1.698 0.705 3.327 1.152 4.8 1.537l2.432 0.735c0.832 0.287 1.887 0.64 3.135 0.865 3.712 0.735 7.457 1.12 11.17 1.12h21.085c3.715 0 7.46-0.385 11.235-1.152 1.185-0.225 2.175-0.575 3.295-0.927l2.24-0.672c1.44-0.385 3.070-0.833 4.8-1.535 1.92-0.77 3.585-1.73 5.73-2.912l1.47-0.737c0.61-0.32 1.31-0.67 2.015-1.15 2.4-1.57 4.515-3.297 6.88-5.312 0.29-0.257 0.735-0.577 1.25-1.057 2.11-1.982 4.16-4.222 6.75-7.582 6.305-8.385 10.115-18.432 11.135-29.312l0.16-1.407c0.13-0.96 0.29-2.113 0.29-3.457v-56.030l3.65-0.898c28.48-7.040 56.51-18.912 83.295-35.262l3.23-1.985 40.225 40.225c8.705 8.67 19.935 14.207 33.6 16.062 2.59 0.352 4.96 0.512 7.265 0.512l1.695-0.033c0.64 0 1.185-0.095 2.335-0.223 2.145-0.16 4.96-0.417 7.81-1.025 1.025-0.225 1.92-0.512 3.775-1.087l1.41-0.418c1.44-0.415 3.1-0.895 4.83-1.63 1.73-0.705 3.2-1.57 5.44-2.85l1.535-0.8c0.705-0.382 1.6-0.8 2.56-1.44 3.135-2.11 6.050-4.51 8.675-7.070l14.91-14.945c2.56-2.592 4.96-5.505 7.070-8.672 0.675-0.993 1.155-1.982 1.795-3.232l1.055-1.887c0.705-1.312 1.57-2.752 2.24-4.415 0.735-1.76 1.25-3.425 1.665-4.96l0.765-2.56c0.225-0.673 0.48-1.505 0.705-2.432 0.64-2.815 0.865-5.567 1.12-8.575 0.035-0.417 0.095-0.992 0.13-1.57 0.095-2.815-0.035-5.855-0.545-10.11-1.76-12.512-7.295-23.745-16-32.512l-40.255-40.225 1.985-3.233c16.32-26.782 28.16-54.782 35.2-83.23l0.895-3.65h56.19c1.375 0 2.595-0.16 3.555-0.32l1.565-0.19c10.655-0.96 20.735-4.8 29.825-11.65 2.655-2.047 4.865-4.063 6.945-6.27 0.35-0.353 0.605-0.705 1.375-1.698 1.63-1.887 3.33-3.902 4.865-6.302 0.575-0.865 0.99-1.73 1.885-3.457l0.61-1.088c0.77-1.375 1.63-2.945 2.37-4.705 0.64-1.6 1.055-3.135 1.44-4.51l0.765-2.53c0.29-0.895 0.675-2.015 0.93-3.327 0.735-3.742 1.15-7.52 1.15-11.167v-21.055h-0.094z" />
<glyph unicode="&#xe922;" glyph-name="help" d="M342.294 563.516c0 69.185 21.37 118.047 64.107 146.58 32.572 24.43 70.227 36.68 112.967 36.68 44.82 0 82.475-13.29 113.030-39.675 32.57-24.43 48.86-62.152 48.86-112.965 4.035-40.85-19.35-84.562-70.23-131.337-30.555-26.452-49.9-47.817-58.050-64.107-8.14-16.35-12.245-41.69-12.245-76.285h-67.165c0 40.715 5.080 71.275 15.245 91.595 6.122 18.31 25.47 43.78 58.045 76.355 2.020 1.955 5.080 5.015 9.185 9.185 42.805 36.68 61.11 69.187 54.985 97.725-6.125 59.022-37.72 89.575-94.72 91.595-69.255 0-103.85-41.76-103.85-125.212h-70.165v-0.134h0.001zM546.859 178.822h-76.352v79.415h76.352v-79.415zM511.999-63.997c-282.367 0-511.999 229.579-511.999 511.998 0 282.265 229.632 511.999 511.999 511.999 282.364 0 511.999-229.684 511.999-511.999-0.001-282.419-229.68-511.998-511.999-511.998zM511.999 908.8c-254.055 0-460.799-206.744-460.799-460.799s206.744-460.799 460.799-460.799c254.104 0 460.799 206.689 460.799 460.799 0 254.002-206.695 460.799-460.799 460.799z" />
<glyph unicode="&#xe923;" glyph-name="form-vessel" d="M263.168 235.52h321.024v-19.968h-321.024v19.968zM263.168 680.448h321.024v-19.968h-321.024v19.968zM581.632 591.36h-318.464v-19.968h310.272zM506.368 413.184h-243.2v-19.456h235.008zM263.168 502.272v-19.456h272.384l8.704 19.456zM263.168 304.64h197.12l8.704 19.968h-205.824zM198.656 136.704h444.928v146.944l-19.968-1.536v-125.952h-404.992v583.68h404.992v-84.48h19.968v103.936h-444.928zM807.936 656.896l12.8 22.016c9.728 16.896 3.584 38.912-13.312 49.152l-23.040 13.312c-17.408 10.24-39.424 4.096-49.152-12.8l-14.336-25.088 87.040-46.592zM554.496 416.256l-2.56-4.608c-6.144-10.752-11.776-28.672-12.288-40.96l-2.56-44.032c-0.512-11.776 0-18.944 8.704-24.064s15.36-2.048 25.088 4.608l36.864 24.064c10.752 6.656 23.040 20.48 29.696 31.232l4.096 7.168-87.040 46.592zM653.824 390.656l141.824 245.248-87.040 46.592-141.824-245.248z" />
<glyph unicode="&#xe924;" glyph-name="history" d="M511.999-63.997c-282.785 0-511.999 229.249-511.999 511.998 0 282.752 229.214 511.999 511.999 511.999s511.999-229.247 511.999-511.999c-0.001-282.749-229.25-511.998-511.999-511.998zM511.999 896.033c-247.392 0-447.999-200.577-447.999-447.999 0-247.392 200.575-448.001 447.999-448.001s447.999 200.579 447.999 448.001-200.61 447.999-447.999 447.999zM751.998 416.001h-255.999c-8.832 0-16 7.17-16 16v351.999c0 8.865 7.167 16 16 16h32c8.83 0 16-7.135 16-16v-303.999h208c8.83 0 16-7.167 16-16v-32c-0.001-8.83-7.171-16-16.001-16z" />
<glyph unicode="&#xe925;" glyph-name="edit" d="M863.232 766.464l31.232-31.232 46.592 46.592c25.6 25.6 25.6 67.072 0 92.672s-67.072 25.6-92.672 0l-46.592-46.592 61.44-61.44zM878.080 843.264c8.192 8.192 22.016 8.192 31.232 0 8.192-8.192 8.192-22.016 0-31.232l-15.36-15.36-31.232 31.232 15.36 15.36zM373.248 399.872l-71.168-162.816 162.816 71.168 0.512-1.024 397.824 396.8-30.72 31.232-397.824-396.8-30.208 30.208 396.8 397.824-31.232 30.208zM943.104 704l-80.896-59.904c32.768-58.368 51.712-125.44 51.712-197.12 0-221.696-180.224-401.92-401.92-401.92s-401.92 180.224-401.92 401.92 180.224 401.92 401.92 401.92c66.048 0 129.536-16.384 184.832-45.056l58.368 82.432c-72.704 40.448-155.136 63.488-243.712 63.488-277.504 0-501.76-225.28-501.76-501.76 0-277.504 225.28-501.76 501.76-501.76 277.504 0 501.76 225.28 501.76 501.76 1.024 94.208-25.6 181.76-70.144 256z" />
<glyph unicode="&#xe926;" glyph-name="copy" d="M740.864 799.744v158.72h-466.944c-65.024-64.512-130.048-131.584-195.584-196.608v-719.872h204.8v-104.448h662.016v862.208h-204.288zM283.136 125.952h-121.856v594.944h152.064l45.056 156.672h310.784v-77.312h-158.72c-66.048-65.536-161.28-131.584-227.328-196.608v-477.696zM872.448 15.36h-518.656v549.376h197.632v156.16h321.024v-705.536z" />
<glyph unicode="&#xe927;" glyph-name="delete" d="M851.968 886.272h-205.312v73.728h-271.872v-73.728h-205.312v-72.192h682.496zM853.504 758.272v0h-751.104v-106.496h67.584v-715.776h683.008v715.264h68.608v107.008h-68.096zM367.616 39.424h-93.184v612.864h92.16v-612.864h1.024zM558.080 39.424h-92.16v612.864h92.16c0 0 0-612.864 0-612.864zM751.616 39.424h-92.16v612.864h92.16v-612.864z" />
<glyph unicode="&#xe928;" glyph-name="publish" d="M957.513 862.315c0 0.045-0.005 0.087-0.005 0.132 0.005 0.85-0.040 1.697-0.105 2.542-0.020 0.243-0.045 0.482-0.070 0.723-0.075 0.71-0.17 1.415-0.295 2.115-0.030 0.195-0.060 0.393-0.095 0.588-0.165 0.845-0.365 1.68-0.595 2.505-0.070 0.255-0.16 0.505-0.24 0.757-0.18 0.59-0.38 1.175-0.6 1.752-0.11 0.305-0.225 0.607-0.35 0.91-0.3 0.723-0.62 1.438-0.97 2.135-0.14 0.275-0.29 0.543-0.44 0.815-0.29 0.535-0.59 1.062-0.915 1.58-0.185 0.298-0.375 0.59-0.565 0.882-0.39 0.577-0.795 1.14-1.22 1.692-0.13 0.17-0.255 0.345-0.39 0.512-0.54 0.667-1.115 1.305-1.71 1.93-0.18 0.188-0.36 0.372-0.55 0.558-0.58 0.577-1.18 1.137-1.81 1.672-0.070 0.063-0.135 0.132-0.21 0.192-0.020 0.020-0.045 0.033-0.065 0.050-0.59 0.49-1.195 0.962-1.825 1.41-0.13 0.090-0.26 0.167-0.39 0.255-0.225 0.155-0.455 0.302-0.685 0.452-0.565 0.37-1.145 0.72-1.735 1.048-0.24 0.137-0.48 0.28-0.725 0.41-0.745 0.39-1.5 0.75-2.265 1.077-0.3 0.127-0.61 0.237-0.91 0.357-0.54 0.21-1.080 0.405-1.63 0.582-0.32 0.105-0.645 0.213-0.97 0.308-0.79 0.23-1.59 0.435-2.39 0.602-0.225 0.045-0.45 0.075-0.68 0.115-0.655 0.12-1.315 0.22-1.98 0.3-0.29 0.033-0.575 0.063-0.87 0.088-0.74 0.067-1.48 0.107-2.23 0.12-0.13 0-0.26 0.012-0.39 0.012-0.88 0.003-1.76-0.040-2.635-0.113-0.225-0.017-0.445-0.045-0.675-0.067-0.7-0.073-1.4-0.17-2.1-0.292-0.215-0.035-0.425-0.068-0.635-0.108-0.855-0.167-1.705-0.365-2.55-0.605-0.195-0.058-0.395-0.128-0.59-0.188-0.64-0.198-1.275-0.412-1.905-0.65-0.3-0.117-0.605-0.235-0.91-0.36-0.57-0.238-1.13-0.13-1.69-0.403-0.25-0.122-0.51 0.003-0.76 0.003v0l-831.456-434.771c-10.295-5.38-16.717-16.247-16.635-27.862s6.652-22.305 17.020-27.535l223.289-112.745c15.272-7.715 33.91-1.605 41.622 13.675 7.707 15.28 1.575 33.9-13.7 41.61l-169.43 85.51 640.408 334.594-394.762-473.224c-4.65-5.57-7.195-12.6-7.195-19.85v-236.624c0-17.11 13.872-30.985 30.985-30.985s30.985 13.87 30.985 30.985v225.394l416.434 499.194-94.86-641.008-223.434 110.894c-15.325 7.605-33.92 1.345-41.53-13.98-7.605-15.33-1.345-33.92 13.98-41.53l261.619-129.845c4.34-2.155 9.060-3.23 13.775-3.23 4.93 0 9.855 1.175 14.35 3.525 8.79 4.59 14.845 13.115 16.3 22.92l117.225 792.158c0.045 0.28 0.060 0.563 0.1 0.842 0.030 0.295 0.070 0.59 0.1 0.887 0.075 0.871 0.13 1.741 0.135 2.606z" />
<glyph unicode="&#xe929;" glyph-name="save" d="M840.333-38.467h-656.668c-89.975 0-163.185 73.155-163.185 163.16v646.59c0 90.002 73.21 163.212 163.185 163.212h656.693c89.95-0.028 163.16-73.21 163.16-163.212v-646.591c-0.001-90.005-73.18-163.159-163.185-163.159v0 0zM183.665 870.79c-54.885 0-99.532-44.62-99.532-99.535v-646.563c0-54.89 44.645-99.56 99.532-99.56h656.693c54.89 0 99.535 44.67 99.535 99.56v646.591c0 54.915-44.645 99.532-99.535 99.532l-656.693-0.025zM826.708 446.471h-629.418v487.997h629.443v-487.996h-0.025v-0.001zM260.914 510.151h502.169v360.639h-502.169v-360.639zM605.713 777.128h63.625v-212.202h-63.625v212.202z" />
<glyph unicode="&#xe92a;" glyph-name="count-ele" d="M524.8 464.896c1.024 1.536 1.024 2.56 1.024 4.608v90.624c0 5.12-4.608 9.216-9.728 9.216-5.632 0-9.728-4.096-9.728-9.216v-90.624c0-1.024 0.512-2.048 0.512-3.072-17.408-3.072-30.208-18.432-30.208-36.864 0-7.168 2.048-13.824 5.632-19.456-1.024-0.512-1.536-1.024-2.048-1.536l-55.296-55.296c-3.584-3.584-3.584-9.728 0-13.824 3.584-3.584 9.728-3.584 13.824 0l54.784 54.784c0.512 0.512 1.024 1.536 1.536 2.56 5.632-3.072 11.776-5.12 18.432-5.12 20.48 0 37.376 16.896 37.376 37.376-0.512 16.896-11.264 31.232-26.112 35.84zM513.536 410.624c-10.24 0-18.432 8.192-18.432 18.944 0 10.24 8.192 18.944 18.432 18.944s18.432-8.192 18.432-18.944c0-10.752-8.192-18.944-18.432-18.944zM175.616 136.704h672.256v622.592h-672.256v-622.592zM195.072 739.84h632.832v-583.68h-632.832v583.68zM537.6 623.616c1.536 3.584 2.048 7.168 2.048 11.264 0 15.36-12.288 28.16-27.648 28.16s-27.648-12.8-27.648-28.16c0-4.096 1.024-7.68 2.048-11.264-95.744-12.8-169.472-94.72-169.472-194.56 0-108.544 87.552-196.096 195.072-196.096 108.032 0 195.072 88.064 195.072 196.096 0 99.328-73.728 181.76-169.472 194.56zM512 644.096c5.12 0 9.216-4.096 9.216-9.216s-4.096-9.216-9.216-9.216-9.216 4.096-9.216 9.216c0 4.608 4.096 9.216 9.216 9.216zM512 252.416c-96.768 0-175.616 79.872-175.616 177.664 0 95.232 73.728 173.056 166.4 177.664 2.56-1.024 5.632-1.536 8.704-1.536s6.144 0.512 8.704 1.536c92.672-4.608 166.4-82.432 166.4-177.664 0.512-98.304-77.824-177.664-174.592-177.664z" />
<glyph unicode="&#xe92b;" glyph-name="folder" d="M1020.416 726.016c0 23.040-25.088 49.664-44.544 49.664h-483.328l-44.544 100.352c-8.192 19.968-25.088 49.664-44.544 49.664h-221.696c-19.456 0-36.352-29.696-44.544-49.664l-44.544-100.352h-44.544c-19.456 0-44.544-27.648-44.544-49.664v-698.368c0-23.040 25.088-49.664 44.544-49.664l928.256-7.168c24.576 8.192 41.472 30.72 43.52 55.808v0l0.512 699.392zM905.216 48.128l-792.064 3.072c-16.384 0-38.4 24.576-38.4 45.568v563.2c0 19.968 21.504 44.544 38.4 44.544h38.4l37.888 96.768c7.168 17.92 22.016 44.544 38.4 44.544h135.68c16.384 0 31.232-26.112 38.4-48.128l37.888-92.16h470.016c16.384 4.608 38.4-24.576 38.4-44.544 0 0 4.608-410.112 4.608-563.2-1.024-50.176-47.616-49.664-47.616-49.664z" />
<glyph unicode="&#xe92c;" glyph-name="template" d="M24.342 401.116h415.854c13.832 0 24.512-11.255 24.512-24.495v-416.149c0-13.555-10.68-24.215-24.512-24.215h-415.854c-13.855 0-24.215 10.66-24.215 24.215v416.149c0 13.24 10.36 24.495 24.215 24.495v0zM415.981 352.112v0h-367.424v-367.424h367.424v367.424zM582.949 960v0h416.409c13.28 0 24.51-10.957 24.51-24.512v-416.131c0-13.557-11.23-24.512-24.51-24.512h-416.409c-13.28 0-23.96 10.955-23.96 24.512v416.131c0 13.555 10.68 24.512 23.96 24.512v0zM975.438 910.995v0h-368v-367.424h367.999v367.424h0.001zM582.949 401.116v0h416.409c13.28 0 24.51-11.255 24.51-24.495v-416.149c0-13.555-11.23-24.215-24.51-24.215h-416.409c-13.28 0-23.96 10.66-23.96 24.215v416.149c0 13.24 10.68 24.495 23.96 24.495v0zM975.438 352.112v0h-368v-367.424h367.999v367.424h0.001zM232.557 960v0c64.032 0 122.27-25.942 164.070-68.062 42.12-42.12 68.082-100.335 68.082-164.367 0-64.607-25.962-122.567-68.082-164.39v0-0.255c-42.1-41.822-100.037-68.082-164.070-68.082-64.607 0-122.29 26.26-164.965 68.337-41.545 41.822-67.465 99.782-67.465 164.39 0 64.032 25.92 122.247 67.465 164.367h0.575c42.1 42.12 99.783 68.062 164.39 68.062v0zM362.029 857.918v0c-33.167 32.87-79.295 53.077-129.472 53.077-51.052 0-96.922-20.207-129.792-53.077h-0.555c-32.89-33.742-53.652-79.87-53.652-130.347 0-50.752 20.762-96.902 54.207-130.070 32.87-33.167 78.74-53.93 129.792-53.93 50.177 0 96.902 20.762 129.472 53.93h0.277c33.167 32.89 53.675 79.317 53.675 130.070 0 50.477-20.507 96.604-53.952 130.347v0z" />
<glyph unicode="&#xe92d;" glyph-name="text" d="M146.432 116.736h731.648v662.528h-731.648v-662.528zM165.888 759.296h691.712v-622.592h-691.712v622.592zM355.328 667.648l-13.824-97.792h20.48c12.288 70.144 16.896 73.216 51.712 73.216h76.288v-351.744c0-43.008-2.56-46.080-55.808-46.080v-17.92h156.16v17.92c-54.272 0-55.808 3.072-55.808 46.080v352.256h75.776c34.816 0 38.912-1.536 51.712-73.216h20.48l-13.824 97.792-313.344-0.512z" />
<glyph unicode="&#xe92e;" glyph-name="title-ele" d="M254.976 719.872h514.048v-98.816h-514.048v98.816zM146.432 116.736h731.648v662.528h-731.648v-662.528zM165.888 759.296h691.712v-622.592h-691.712v622.592z" />
<glyph unicode="&#xe92f;" glyph-name="bottom-nav" d="M274.944 230.4c28.672 0 51.712 23.040 51.712 51.712s-23.040 51.712-51.712 51.712c-28.672 0-51.712-23.040-51.712-51.712s23.040-51.712 51.712-51.712zM568.832 329.216h-113.664l56.832-98.816zM702.464 329.216h98.816v-98.816h-98.816v98.816zM146.432 779.264v-662.016h731.648v662.016h-731.648zM857.6 136.704h-691.712v301.056h691.712v-301.056zM857.6 457.728h-691.712v301.568h691.712v-301.568z" />
<glyph unicode="&#xe930;" glyph-name="page" d="M238.085 582.984h-37.299v-544.338h416.753v37.294h-379.453v507.044zM662.789 857.354v-188.703l192.983-0.302-192.983 189.005zM623.621 841.185h-309.489v-686.121h528.64v469.105h-219.151v217.016zM805.571 586.875v-394.511h-454.139v611.569h234.895v-217.062l219.244 0.005z" />
<glyph unicode="&#xe931;" glyph-name="video" d="M175.616 136.704h672.256v622.592h-672.256v-622.592zM195.072 739.84h632.832v-583.68h-632.832v583.68zM512 664.064c-119.296 0-216.064-96.768-216.064-216.064s96.768-216.064 216.064-216.064 216.064 96.768 216.064 216.064-96.768 216.064-216.064 216.064zM512 252.416c-108.032 0-195.584 87.552-195.584 195.584s87.552 195.584 195.584 195.584 195.584-87.552 195.584-195.584-87.552-195.584-195.584-195.584zM614.4 448c0-2.048-1.536-3.584-3.584-4.096l-132.608-76.8c-1.024-1.024-2.048-1.536-3.072-1.536-2.56 0-4.096 2.048-4.096 4.096 0 0 0 0 0 0.512v155.136c0 0 0 0 0 0.512 0 2.56 2.048 4.096 4.096 4.096 1.536 0 2.56-0.512 3.072-1.536l132.096-76.288c2.56 0 4.096-2.048 4.096-4.096z" />
<glyph unicode="&#xe932;" glyph-name="conponent" d="M871.045 313.953l-179.692 168.909v195.205h-146.033v11.843c16.666 56.356 13.563 99.727-9.068 128.886-29.322 37.652-79.38 35.814-81.592 35.773l-0.486-0.041c-44.677-3.876-75.796-20.132-92.457-48.312-26.552-44.918-5.642-104.177-0.164-117.939v-10.537h-208.599v-165.637l16.906 3.594c18.872 4.081 76.37 9.964 92.861-16.333 22.216-35.287 20.582-74.491 10.952-89.19-13.722-20.905-45.251-53.007-102.42-33.971l-18.294 6.118v-227.789h212.275l-1.224 15.032c0 0.241-1.797 23.516 5.059 49.167 7.516 27.93 22.057 47.534 43.126 58.481v-78.085h106.179c-0.082-7.511-0.814-18.621-2.125-28.989l-1.797-15.601h97.111v-113.121l259.482 272.538zM341.949 225.096c-4.332-16.497-5.719-32.020-5.96-42.716h-155.187v162.452c27.935-5.55 53.581-1.633 76.534 11.679 10.614 6.292 26.138 17.889 39.526 38.308 16.010 24.253 17.807 74.322-10.537 119.409-12.979 20.664-38.794 32.015-74.732 32.998-11.597 0.241-22.38-0.573-30.792-1.556v104.141h208.604v44.186l-1.224 2.611c-0.164 0.573-24.75 57.825-2.452 95.519 11.848 19.845 35.528 31.483 70.405 34.586 3.185 0.082 38.385 0.287 58.148-24.991 17.070-22.011 18.381-57.544 3.84-105.728l-0.568-1.961-0.159-43.899h146.028v-141.133l-57.334 53.903v-130.191h-193.9v-125.204c-35.123-12.744-59.377-41.247-70.241-82.412v0zM439.962 404.951h193.894v93.594l197.658-185.728-192.102-201.738v115.82h-199.45v178.053zM545.485 182.38c0.087 1.715 0.164 3.589 0.323 5.473 0.251 4.244 0.328 8.003 0.328 11.264h65.418v-16.742l-66.068 0.005z" />
<glyph unicode="&#xe933;" glyph-name="location" d="M508.416 430.080c79.36 0 143.872 64.512 143.872 143.872s-64.512 143.872-143.872 143.872-143.872-64-143.872-143.36c0-79.872 64.512-144.384 143.872-144.384zM507.904 679.424c58.368 0 105.472-47.104 105.472-105.472s-47.104-105.472-105.472-105.472c-58.368 0-105.472 47.104-105.472 105.472s47.104 105.472 105.472 105.472zM508.416 84.48c0 0 271.872 299.52 286.208 492.032 13.824 182.272-128 330.752-286.208 330.752s-297.472-148.48-286.208-330.752c11.776-187.904 286.208-492.032 286.208-492.032zM507.904 865.28c136.704 0 259.072-130.048 247.296-289.792-12.288-168.96-247.296-431.616-247.296-431.616s-237.568 267.264-247.296 431.616c-10.24 159.744 110.592 289.792 247.296 289.792zM659.456 222.72c-7.68-10.24-15.36-19.968-23.040-29.696 74.752-16.384 124.928-46.592 124.928-81.408 0-52.224-113.664-94.72-253.44-94.72s-253.44 42.496-253.44 94.72c0 34.816 50.176 65.024 124.928 81.408-7.68 9.728-15.36 19.456-23.040 29.696-86.016-22.528-143.36-64-143.36-111.104 0-71.68 132.096-129.536 294.912-129.536s294.912 57.856 294.912 129.536c0 47.104-57.856 88.576-143.36 111.104z" />
<glyph unicode="&#xe934;" glyph-name="notebook" d="M707.584 309.248h-372.224c-11.776 0-21.504-9.728-21.504-21.504s9.728-21.504 21.504-21.504h372.224c11.776 0 21.504 9.728 21.504 21.504s-9.728 21.504-21.504 21.504zM707.584 469.504h-372.224c-11.776 0-21.504-9.728-21.504-21.504s9.728-21.504 21.504-21.504h372.224c11.776 0 21.504 9.728 21.504 21.504s-9.728 21.504-21.504 21.504zM335.36 586.752h372.224c11.776 0 21.504 9.728 21.504 21.504s-9.728 21.504-21.504 21.504h-372.224c-11.776 0-21.504-9.728-21.504-21.504s9.728-21.504 21.504-21.504zM407.552 814.080h208.384c22.016 0 39.936 17.92 39.936 39.936s-17.92 39.936-39.936 39.936h-208.384c-22.016 0-39.936-17.92-39.936-39.936s17.92-39.936 39.936-39.936zM807.424 876.032h-97.28v-43.008h81.92c31.232 0 56.832-25.6 56.832-56.832v-675.328c0-31.232-25.6-56.832-56.832-56.832h-560.128c-31.232 0-56.832 25.6-56.832 56.832v675.328c0 31.232 25.6 56.832 56.832 56.832h81.92v43.008h-97.28c-46.592 0-84.992-38.4-84.992-84.992v-704c0-46.592 38.4-84.992 84.992-84.992h590.336c46.592 0 84.992 38.4 84.992 84.992v704c0.512 46.592-37.888 84.992-84.48 84.992z" />
<glyph unicode="&#xe935;" glyph-name="shoppingcart" d="M125.44 812.032h128.512c10.24 0 18.944 8.192 18.944 18.944v3.072c0 10.24-8.192 18.944-18.944 18.944h-128.512c-10.24 0-18.944-8.192-18.944-18.944v-3.072c0-10.24 8.192-18.944 18.944-18.944zM291.328 721.92h617.472c10.24 0 18.944 8.192 18.944 18.944v3.072c0 10.24-8.192 18.944-18.944 18.944h-617.472c-10.24 0-18.944-8.192-18.944-18.944v-3.072c0.512-10.24 8.704-18.944 18.944-18.944zM488.96 555.008c39.936 23.040 74.752-14.336 146.432-9.216 25.6 2.048 60.928 9.728 100.864 36.864 1.024 0.512 12.8 11.264 9.216 22.528v0c-2.56 8.704-12.8 19.456-22.528 11.776-17.92-14.336-45.568-31.744-81.92-37.376-69.632-11.264-112.64 28.16-165.888 5.12 0 0-38.912-17.408-59.904-61.44-3.584-7.68-13.312-28.16-5.632-36.864 2.56-3.072 6.656-3.584 8.192-4.096 21.504-3.072 34.816 51.712 71.168 72.704zM486.912 112.128h196.096c10.24 0 18.944 8.704 18.944 18.944v0c0 10.24-8.192 18.944-18.944 18.944h-196.096c-10.24 0-18.944-8.704-18.944-18.944v0c0-10.24 8.704-18.944 18.944-18.944zM348.16 285.696l436.224 68.096c10.24 1.536 17.408 11.264 15.872 21.504v0c-1.536 10.24-11.264 17.408-21.504 15.872l-436.224-68.096c-10.24-1.536-17.408-11.264-15.872-21.504v0c1.536-10.752 11.264-17.408 21.504-15.872zM802.816 371.712l123.904 366.080c3.072 9.728-2.048 20.48-11.776 23.552v0c-9.728 3.072-20.48-2.048-23.552-11.776l-123.904-366.080c-3.072-9.728 2.048-20.48 11.776-23.552v0c9.728-3.072 20.48 2.048 23.552 11.776zM234.496 829.952l92.672-613.888c1.536-10.24 11.264-17.408 21.504-15.872l3.072 0.512c10.24 1.536 17.408 11.264 15.872 21.504l-93.184 613.888c-1.536 10.24-11.264 17.408-21.504 15.872l-3.072-0.512c-10.24-1.536-16.896-11.264-15.36-21.504zM394.24 246.272c-56.32 0-101.888-45.568-101.888-101.888s45.568-101.376 101.888-101.376 101.888 45.568 101.888 101.888-46.080 101.376-101.888 101.376zM394.24 80.896c-35.328 0-64 28.672-64 64s28.672 64 64 64 64-28.672 64-64-29.184-64-64-64zM774.144 246.272c-56.32 0-101.888-45.568-101.888-101.888s45.568-101.888 101.888-101.888 101.888 45.568 101.888 101.888-45.568 101.888-101.888 101.888zM774.144 80.896c-35.328 0-64 28.672-64 64s28.672 64 64 64 64-28.672 64-64-28.672-64-64-64z" />
<glyph unicode="&#xe936;" glyph-name="diamond" d="M912.557 589.697c0-9.238-2.475-17.49-6.357-22.933-0.182-0.84-0.392-1.659-0.547-2.518l-0.233 0.294-374.218-488.179c-0.526-0.107-1.028-0.254-1.541-0.385-4.495-3.114-11.001-5.073-18.239-5.073-6.92 0-13.167 1.791-17.631 4.669-0.685-0.081-1.377-0.133-2.054-0.235l0.058 0.077-374.387 488.956-0.495-0.625c0.16 0.69 0.289 1.395 0.425 2.096-4.278 5.406-7.053 14.079-7.053 23.857 0 9.38 2.554 17.737 6.537 23.175-0.023 0.031-0.039 0.064-0.061 0.095l162.626 205.251c0.030 0.037 0.062 0.069 0.093 0.105 0.168 0.208 0.35 0.403 0.528 0.602 0.169 0.189 0.334 0.383 0.511 0.562 0.109 0.111 0.229 0.211 0.342 0.318 2.121 2.018 4.705 3.339 7.439 3.903 0.052 0.010 0.105 0.015 0.158 0.026 0.447 0.088 0.897 0.159 1.351 0.206 0.067 0.007 0.135 0.007 0.202 0.013 0.446 0.041 0.892 0.065 1.341 0.068 0.020 0 0.040 0.003 0.060 0.003h438.979c2.635 0.164 5.281-0.36 7.676-1.523 2.399-1.153 4.454-2.901 5.963-5.067l163.925-206.685c-0.126-0.096-0.239-0.203-0.36-0.304 3.070-5.35 4.964-12.67 4.964-20.747zM511.421 135.333l132.298 439.015h-264.597l132.299-439.015zM510.91 793.327l-121.965-188.281h243.708l-121.743 188.281zM475.901 146.667l-128.883 427.682h-198.587l327.47-427.682zM285.929 777.060l-136.292-172.015h188.13l-51.838 172.015zM364.314 623.487l110.019 169.84h-161.201l51.183-169.84zM547.481 793.327l110.651-171.151 51.577 171.151h-162.228zM736.899 777.020l-51.824-171.973h188.219l-136.394 171.973zM675.824 574.349l-128.544-426.552 326.977 426.552h-198.433z" />
<glyph unicode="&#xe937;" glyph-name="sort" d="M847.872 759.296h-671.744v-622.624h672.256v622.624h-0.512zM828.448 156.16h-632.864v583.68h632.864v-583.68zM320.64 602.784h135.264v-38.080h-135.264v38.080zM320.64 477.632h215.328v-38.080h-215.328v38.080zM320.64 352.48h396.064v-38.080h-396.064v38.080zM716.672 460.512l-20.864 16.704-33.856-42.336 0.192 167.904h-26.752l-0.224-169.408-36.064 43.872-20.672-16.992 70.016-85.12 68.224 85.376z" />
<glyph unicode="&#xe938;" glyph-name="forward" d="M1015.808 491.008l-479.744 407.552v-235.52c0 0-119.296-18.432-179.712-33.28-101.888-25.088-158.208-84.48-158.208-84.48-59.904-41.984-133.12-155.136-163.328-290.816s-25.088-257.024-25.088-257.024 39.424 74.752 55.296 101.376c15.872 26.624 108.544 135.68 212.992 192.512 104.96 56.832 258.048 30.72 258.048 30.72v-235.52l479.744 404.48zM274.944 343.040c-135.68-58.88-219.136-183.808-217.088-180.736 10.24 20.48 13.824 207.36 159.232 343.040 141.312 131.584 371.712 97.28 371.712 104.96 0 89.088 0 157.184 0 157.184l345.088-275.456-345.088-275.456c0 0 0 69.632 0 159.232-0.512 0.512-191.488 19.968-313.856-32.768z" />
<glyph unicode="&#xe939;" glyph-name="grade-ele" d="M169.984 757.76v-619.008h684.032v619.008h-684.032zM835.584 156.672h-647.168v582.656h646.656v-582.656zM376.32 244.736l135.68 67.584 129.024-67.584-22.528 147.968 110.592 101.376-149.504 27.136-67.584 134.656-74.752-134.656-142.336-27.136 111.104-101.376-29.696-147.968zM448.512 508.416l63.488 115.2 57.856-115.2 126.976-23.040-73.216-66.56c-10.24 6.656-35.84 11.264-47.104 10.24-14.336-1.024-36.864-24.576-55.296-23.040-23.552 2.048-45.568 40.96-67.584 45.056-33.792 7.168-55.808-25.088-55.808-25.088l-2.048-3.584-68.608 62.976 121.344 23.040z" />
<glyph unicode="&#xe93a;" glyph-name="input-ele" d="M169.984 757.76v-619.008h684.032v619.008h-684.032zM835.584 156.672h-647.168v582.656h646.656v-582.656zM414.72 618.496h71.168v-328.704c0-39.936-2.048-43.008-52.224-43.008v-16.896h145.92v16.896c-50.688 0-52.224 2.56-52.224 43.008v328.704h70.656c32.256 0 36.352-1.536 48.64-68.608h18.944l-12.8 91.136h-292.864l-12.8-91.136h18.944c11.776 66.048 15.872 68.608 48.64 68.608z" />
<glyph unicode="&#xe93b;" glyph-name="preview" d="M53.76 869.888h-25.6c-10.752 0-19.456-8.192-19.456-19.456v-837.632c0-10.752 8.192-19.456 19.456-19.456h26.624c10.752 0 19.456 8.192 19.456 19.456v838.144c-0.512 10.752-9.216 18.944-20.48 18.944zM989.696 492.032c-24.064 14.336-645.632 381.952-680.448 402.944-34.816 20.48-72.704-6.656-73.216-44.032-0.512-50.688-0.512-762.88 0-806.4 0-39.424 39.936-63.488 74.24-44.032 51.2 30.208 649.216 385.024 679.424 401.92 36.352 24.064 31.744 70.656 0 89.6zM301.056 91.648v713.216l616.96-356.864-616.96-356.352z" />
<glyph unicode="&#xe93c;" glyph-name="select-ele" d="M169.984 757.76v-619.008h684.032v619.008h-684.032zM835.584 156.672h-647.168v582.656h646.656v-582.656zM512 630.272c-100.864 0-182.272-81.92-182.272-182.272 0-100.864 81.92-182.272 182.272-182.272s182.272 81.92 182.272 182.272c0 100.864-81.408 182.272-182.272 182.272zM512 284.16c-90.624 0-163.84 73.216-163.84 163.84s73.216 163.84 163.84 163.84 163.84-73.216 163.84-163.84c0-90.624-73.216-163.84-163.84-163.84zM602.112 524.288l-113.664-129.536-60.928 76.288-17.408-11.264 69.632-88.064h14.336l119.808 140.8z" />
<glyph unicode="&#xe93d;" glyph-name="textarea-ele" d="M393.728 624.128h55.808v-60.416h32.256v60.416h55.808c25.088 0 28.16-1.536 37.888-53.76h14.848l-10.24 71.68h-228.864l-10.24-71.68h14.848c9.216 51.712 12.288 53.76 37.888 53.76zM450.048 521.728v-156.672c0-31.744-1.536-33.792-40.96-33.792v-13.312h114.688v13.312c-39.936 0-40.96 2.048-40.96 33.792v156.672h-32.768zM169.984 757.76v-619.008h684.032v619.008h-684.032zM835.584 156.672h-647.168v582.656h646.656v-582.656zM419.84 482.304h14.848c9.216 51.712 12.288 53.76 37.888 53.76h55.808v-258.56c0-31.744-1.536-33.792-40.96-33.792v-13.312h114.688v13.312c-39.936 0-40.96 2.048-40.96 33.792v258.56h55.296c25.088 0 28.16-1.536 37.888-53.76h14.848l-10.24 71.68h-229.376l-9.728-71.68z" />
<glyph unicode="&#xe93e;" glyph-name="time-ele" d="M169.984 757.76v-619.008h684.032v619.008h-684.032zM835.584 156.672h-647.168v582.656h646.656v-582.656zM514.048 221.696c126.464 0 228.864 103.424 228.864 231.424 0 123.904-96.256 224.768-217.088 230.912-12.8-0.512-13.824 0.512-23.040 0-120.832-6.144-217.088-107.008-217.088-230.912 0-128 102.4-231.424 228.352-231.424zM346.624 367.616l-19.456-11.264c-13.312 26.112-20.992 55.808-22.528 87.040h23.040c0 2.56 0 4.608 0 7.168 0 4.096 0 7.68 0.512 11.776h-23.040c1.024 30.208 8.704 58.368 20.992 83.968l21.504-12.288c2.56 5.632 5.632 10.752 9.216 15.872l-21.504 12.288c15.872 26.112 36.864 49.152 61.952 66.048l13.312-23.040c5.12 3.584 10.24 6.656 15.872 9.728l-13.312 23.552c27.136 15.36 57.856 25.088 91.136 26.624v-28.16c3.584 0 7.68 0.512 11.776 0.512 2.56 0 4.608 0 7.168 0v27.648c1.024 0 2.56 0 3.584 0 30.72-1.536 59.904-9.728 85.504-23.552l-13.824-23.552c5.632-2.56 10.752-5.632 16.384-9.216l13.312 23.552c26.112-16.896 48.64-39.424 65.024-65.536l-22.016-12.8c3.584-5.12 6.656-10.24 9.728-15.872l21.504 12.288c13.824-26.624 22.016-56.832 23.552-89.088h-23.040c0-3.584 0.512-7.68 0.512-11.776 0-2.56 0-4.608 0-7.168h23.040c-1.536-33.28-10.24-64.512-25.088-91.648l-19.456 11.264c-3.072-5.632-6.144-10.752-9.216-15.872l19.456-11.264c-16.896-26.112-39.424-48.128-66.048-64.512l-11.264 19.968c-5.12-3.072-10.752-6.144-16.384-8.704l11.264-19.968c-26.112-13.312-55.296-20.992-86.528-22.016v23.040c-2.56 0-4.608 0-7.168 0-4.096 0-7.68 0-11.776 0.512v-23.040c-31.744 1.536-61.44 10.752-88.064 25.088l11.264 19.968c-5.632 3.072-10.752 6.144-15.872 9.728l-11.264-19.968c-25.6 16.896-46.592 39.424-62.976 65.024l19.456 11.264c-4.608 5.632-7.68 10.752-10.24 16.384zM512 429.568c6.656 0 12.8 3.584 15.872 9.216h76.288c5.12 0 9.216 4.096 9.216 9.216s-4.096 9.216-9.216 9.216h-76.288c-1.536 2.56-4.096 5.12-6.656 6.656v118.272c0 5.12-4.096 9.216-9.216 9.216s-9.216-4.096-9.216-9.216v-118.272c-5.632-3.072-9.216-9.216-9.216-15.872 0-10.24 8.192-18.432 18.432-18.432z" />
<glyph unicode="&#xe93f;" glyph-name="upload-img" d="M715.776 375.808l-87.040 64.512-103.936-135.68-176.128 208.896-133.632-274.944v450.048h549.376v-311.296c6.656-1.536 13.312-3.584 19.456-6.144v336.896h-588.8v-495.616h282.624l0.512-0.512 0.512 0.512h177.664c-12.288 17.408-19.968 38.4-19.968 61.44 0.512 48.64 34.304 89.6 79.36 101.888zM460.288 556.032c0-37.888 30.72-68.608 68.608-68.608s68.608 30.72 68.608 68.608c0 37.888-30.72 68.608-68.608 68.608s-68.608-30.72-68.608-68.608zM583.168 556.032c0-29.696-24.064-53.76-53.76-53.76s-53.76 24.064-53.76 53.76 24.064 53.76 53.76 53.76 53.76-24.064 53.76-53.76zM742.4 359.424c-47.616 0-86.016-38.4-86.016-86.016s38.4-86.016 86.016-86.016 86.016 38.4 86.016 86.016-38.4 86.016-86.016 86.016zM742.4 200.704c-40.448 0-73.216 32.768-73.216 73.216s32.768 73.216 73.216 73.216 73.216-32.768 73.216-73.216-32.768-73.216-73.216-73.216zM778.752 280.064h-30.208v30.208c0 3.584-2.56 6.144-6.144 6.144s-6.144-2.56-6.144-6.144v-30.208h-30.208c-3.584 0-6.144-2.56-6.144-6.144v0c0-3.584 2.56-6.144 6.144-6.144h30.208v-30.208c0-3.584 2.56-6.144 6.144-6.144s6.144 2.56 6.144 6.144v30.208h30.208c3.584 0 6.144 2.56 6.144 6.144v0c0.512 3.072-2.56 6.144-6.144 6.144z" />
<glyph unicode="&#xe940;" glyph-name="code" d="M146.432 779.264v-662.016h731.648v662.016h-731.648zM857.6 437.76v-301.056h-691.712v622.592h691.712v-321.536zM373.248 391.68l-101.376 44.032 101.376 44.032v23.040l-130.048-57.856v-18.432l130.048-55.808zM576 558.592h-20.992l-107.008-188.928h20.992zM781.824 444.928l-130.048 57.856v-23.040l100.352-44.032-100.352-44.032v-20.992l130.048 55.808z" />
<glyph unicode="&#xe941;" glyph-name="map" d="M146.432 779.264v-662.016h731.648v662.016h-731.648zM857.6 437.76v-301.056h-691.712v622.592h691.712v-321.536zM733.696 278.016v231.424l-87.040-18.432 5.12-18.944 62.464 13.312v-193.536l-127.488-38.4-135.68 50.176v0.512h-0.512l-0.512-0.512-117.248-35.328v198.656l49.664 33.792-10.752 15.872-57.856-39.424h-0.512v-235.008l137.216 40.96 136.192-50.176zM512 635.904c-69.12 0-118.784-47.104-113.664-130.048 4.608-76.8 108.032-162.304 117.76-162.304 7.68 0 107.008 89.088 110.080 162.304 3.584 81.92-42.496 130.048-114.176 130.048zM515.584 363.008c-7.168 0-96.256 70.656-102.912 143.36-6.144 72.704 38.912 114.688 99.328 114.688 62.464 0 104.96-42.496 99.328-114.688-5.632-73.728-88.576-143.36-95.744-143.36zM512 573.952c-26.112 0-47.616-21.504-47.616-47.616s21.504-47.616 47.616-47.616 47.616 21.504 47.616 47.616c0 26.112-21.504 47.616-47.616 47.616zM512 493.056c-18.432 0-33.28 14.848-33.28 33.28s14.848 33.28 33.28 33.28c18.432 0 33.28-14.848 33.28-33.28s-14.848-33.28-33.28-33.28z" />
<glyph unicode="&#xe942;" glyph-name="user-center" d="M176.128 136.704h672.256v622.592h-672.256v-622.592zM195.584 739.84h632.832v-583.68h-632.832v583.68zM557.568 437.76c39.936 17.408 68.096 57.344 68.096 103.936 0 62.976-50.688 113.664-113.664 113.664s-113.664-50.688-113.664-113.664c0-46.592 28.16-86.528 68.096-103.936-82.432-19.456-145.408-90.624-151.552-177.664h-0.512v-19.968h395.264v19.968h-0.512c-6.656 87.040-69.12 158.208-151.552 177.664zM334.848 260.096c7.68 91.136 83.968 163.328 177.152 163.328s169.472-71.68 177.152-163.328h-354.304z" />
<glyph unicode="&#xe943;" glyph-name="dynamic-vessel" d="M402.944 504.832c0-20.359-16.505-36.864-36.864-36.864s-36.864 16.505-36.864 36.864c0 20.359 16.505 36.864 36.864 36.864s36.864-16.505 36.864-36.864zM685.056 477.696c0-16.401-13.295-29.696-29.696-29.696s-29.696 13.295-29.696 29.696c0 16.401 13.295 29.696 29.696 29.696s29.696-13.295 29.696-29.696zM176.128 136.704h672.256v622.592h-672.256v-622.592zM475.136 171.008c-20.48 0-36.864 16.384-36.864 36.864s16.384 36.864 36.864 36.864 36.864-16.384 36.864-36.864c0-19.968-16.384-36.864-36.864-36.864zM195.584 739.84h632.832v-288.256c-40.96 25.088-71.68 21.504-115.712-9.728-50.176-35.84-88.064-34.816-136.192 0-47.104 33.792-92.672 35.328-141.824 0-51.712-37.376-86.016-33.28-132.608 0-43.52 31.232-68.096 33.792-106.496 9.728 0 0 0 288.256 0 288.256zM195.584 422.4c33.28 22.016 54.784 24.064 90.624-1.536 58.368-41.984 105.984-41.984 164.352 0 38.4 27.648 71.168 27.648 109.568 0 58.88-42.496 109.568-42.496 168.448 0 36.352 26.112 64.512 19.968 99.84-3.584v-35.328c-40.96 25.088-71.68 21.504-115.712-9.728-50.176-35.84-88.064-34.816-136.192 0-47.104 33.792-92.672 35.328-141.824 0-51.712-37.376-86.016-33.28-132.608 0-43.52 31.232-68.096 33.792-106.496 9.728 0 0 0 40.448 0 40.448zM195.584 350.72c23.552 13.824 55.296 22.528 90.624 0.512 60.928-38.4 105.984-41.984 164.352 0 38.4 27.648 71.168 27.648 109.568 0 58.88-42.496 109.568-42.496 168.448 0 38.4 27.136 62.464 23.552 99.84-2.048v-43.52c-46.080 31.744-68.096 31.232-115.712-3.072-50.176-35.84-88.064-34.816-136.192 0-47.104 33.792-92.672 35.328-141.824 0-51.712-37.376-86.016-33.28-132.608 0-47.616 34.304-62.976 38.4-106.496 8.192 0 0 0 39.936 0 39.936zM744.448 697.344c0-14.987-12.149-27.136-27.136-27.136s-27.136 12.149-27.136 27.136c0 14.987 12.149 27.136 27.136 27.136s27.136-12.149 27.136-27.136z" />
<glyph unicode="&#xe944;" glyph-name="free-vessel" d="M858.112 265.216c0-90.204-73.124-163.328-163.328-163.328s-163.328 73.124-163.328 163.328c0 90.204 73.124 163.328 163.328 163.328s163.328-73.124 163.328-163.328zM492.032 794.112h-326.144v-326.144h326.144c0 0 0 326.144 0 326.144zM472.576 487.424h-286.72v286.72h286.72v-286.72zM492.032 428.032h-326.144v-326.144h326.144c0 0 0 326.144 0 326.144zM472.576 121.856h-286.72v286.72h286.72v-286.72zM858.112 794.112h-326.144v-326.144h326.144v326.144zM838.144 487.424h-286.72v286.72h286.72v-286.72z" />
<glyph unicode="&#xe945;" glyph-name="goods-list" d="M430.592 534.528c0 23.040-18.944 41.984-41.984 41.984s-41.984-18.944-41.984-41.984c0-17.408 10.752-32.256 25.6-38.4 7.68-116.224 76.288-186.368 159.744-186.368 84.48 0 153.6 71.68 160.256 188.928 12.288 7.168 20.48 20.48 20.48 35.84 0 23.040-18.944 41.984-41.984 41.984s-41.984-18.944-41.984-41.984 18.944-41.984 41.984-41.984c1.536 0 3.072 0 4.096 0-7.68-105.984-68.608-168.448-142.848-168.448s-135.168 61.44-142.848 167.936c23.040 1.024 41.472 19.456 41.472 42.496zM670.208 512c-12.288 0-22.016 9.728-22.016 22.016s9.728 22.016 22.016 22.016c12.288 0 22.016-9.728 22.016-22.016 0-11.776-9.728-22.016-22.016-22.016zM388.608 512c-12.288 0-22.016 9.728-22.016 22.016s9.728 22.016 22.016 22.016 22.016-9.728 22.016-22.016c0-11.776-9.728-22.016-22.016-22.016zM276.992 185.856l49.664 484.352h409.6l33.28-324.096c6.144-1.536 12.288-3.584 17.92-6.144l-36.352 350.208h-60.928l-8.192 59.392h-439.296l-54.272-523.776h75.264l-6.144-59.392h401.92c-5.12 6.144-9.728 12.8-13.312 19.968l-369.152-0.512zM207.872 245.248l49.664 484.352h409.6l5.632-39.424h-360.96l-46.080-444.928h-57.856zM744.448 329.216c-50.688 0-91.648-40.96-91.648-91.648s40.96-91.648 91.648-91.648 91.648 40.96 91.648 91.648c-0.512 50.688-41.472 91.648-91.648 91.648zM789.504 230.4h-37.888v-37.888c0-4.096-3.584-7.68-7.68-7.68s-7.68 3.584-7.68 7.68v37.888h-37.888c-4.096 0-7.68 3.584-7.68 7.68s3.584 7.68 7.68 7.68h37.888v37.888c0 4.096 3.584 7.68 7.68 7.68s7.68-3.584 7.68-7.68v-37.888h37.888c4.096 0 7.68-3.584 7.68-7.68s-3.584-7.68-7.68-7.68z" />
<glyph unicode="&#xe946;" glyph-name="layout-vessel" d="M146.432 183.808h731.648v528.384h-731.648v-528.384zM165.888 692.736h335.872v-489.472h-335.872v489.472z" />
<glyph unicode="&#xe947;" glyph-name="list" d="M428.032 171.008h380.416v163.328h-380.416v-163.328zM448 314.368h340.992v-123.392h-340.992v123.392zM215.552 526.848h173.056v-163.328h-173.056v163.328zM215.552 724.992h173.056v-163.328h-173.056v163.328zM428.032 364.032h380.416v162.816h-380.416v-162.816zM448 507.392h340.992v-123.392h-340.992v123.392zM215.552 334.336h173.056v-163.328h-173.056v163.328zM808.448 724.992h-380.416v-163.328h380.416v163.328zM788.992 581.632h-340.992v123.392h340.992v-123.392z" />
<glyph unicode="&#xe948;" glyph-name="list-vessel" d="M418.304 364.032h326.144v-49.664h-326.144v49.664zM418.304 591.36h148.48v-49.664h-148.48v49.664zM393.216 453.12c0-16.401-13.295-29.696-29.696-29.696s-29.696 13.295-29.696 29.696c0 16.401 13.295 29.696 29.696 29.696s29.696-13.295 29.696-29.696zM393.216 566.784c0-16.401-13.295-29.696-29.696-29.696s-29.696 13.295-29.696 29.696c0 16.401 13.295 29.696 29.696 29.696s29.696-13.295 29.696-29.696zM418.304 477.696h247.296v-49.664h-247.296v49.664zM393.216 339.456c0-16.401-13.295-29.696-29.696-29.696s-29.696 13.295-29.696 29.696c0 16.401 13.295 29.696 29.696 29.696s29.696-13.295 29.696-29.696zM847.872 759.296h-671.744v-622.592h672.256v622.592h-0.512zM828.416 156.16h-632.832v583.68h632.832v-583.68z" />
<glyph unicode="&#xe949;" glyph-name="picture" d="M655.36 588.8c0-50.616-41.032-91.648-91.648-91.648s-91.648 41.032-91.648 91.648c0 50.616 41.032 91.648 91.648 91.648s91.648-41.032 91.648-91.648zM516.096 141.824h342.016v612.864h-692.224v-612.864h350.208zM365.056 509.952l2.048 4.096-15.36 9.216-1.024 1.024-164.352-355.84v566.272h652.288v-406.528l-135.68 95.744 0.512 1.024-13.824 8.192-2.56 1.536-0.512 0.512-98.304-148.992-223.232 223.744z" />
<glyph unicode="&#xe94a;" glyph-name="franchisee-list" d="M280.959 449.181c-19.124 0-36.081 3.368-50.539 10.004h-0.212l-4.747 2.432c-38.7 20.756-62.654 60.934-62.687 104.919 0 13.072 2.168 26.093 6.418 38.743l0.923 3.198 68.75 163.915c6.474 18.91 23.639 30.229 46.769 30.229h454.97c26.081-1.52 42.259-12.342 49.078-32.226l65.341-165.39c4.057-11.939 6.205-24.877 6.205-37.883 0.107-43.389-23.417-83.371-61.333-104.297v0c-15.627-8.648-34.622-13.109-56.472-13.241-41.233 0-78.792 21.167-100.519 56.614l-1.005 1.782c-1.037 2.267-2.168 4.743-4.059 6.847-1.757 1.986-4.488 4.186-10.625 4.186-4.67 0-8.599-1.818-10.029-3.6-2.412-2.757-3.533-5.073-4.593-7.315l-1.052-1.941c-21.574-35.214-58.619-56.387-99.117-56.65-41.091 0.209-78.363 21.442-99.986 56.784l-1.035 1.91c-0.82 1.698-2.043 4.218-3.284 5.607-2.039 2.425-6.117 4.395-11.591 4.395-5.122 0-8.674-1.752-9.466-2.683-2.683-3.001-3.885-5.655-4.698-7.415l-1.114-2.191c-21.965-35.523-59.391-56.601-100.299-56.73zM238.411 485.169l1.135-0.557c11.278-5.688 25.203-8.564 41.362-8.564 31.531 0.107 60.435 16.42 77.28 43.64 0.902 2.125 3.421 7.711 8.356 13.161 6.289 7.577 17.536 12.213 29.978 12.213 12.84 0 24.722-5.068 31.807-13.57 3.58-4.024 5.837-8.708 7.193-11.5 16.549-27.037 45.313-43.465 76.774-43.637 31.092 0.214 59.634 16.592 76.305 43.844 1.141 2.451 3.533 7.405 7.825 12.29 6.718 8.307 18.279 13.374 30.775 13.374 12.428 0 23.031-4.547 30.674-13.158 4.572-5.092 7.049-10.496 8.224-13.090 16.494-26.809 45.483-43.188 77.223-43.188 17.219 0.109 31.889 3.43 43.564 9.891v0c29.342 16.205 47.537 47.151 47.462 80.77 0 10.076-1.673 20.112-4.987 29.843-0.451 1.57-0.718 2.602-0.923 3.512l-63.983 160.617c-3.899 11.328-12.575 14.006-24.448 14.703l-454.41-0.009c-17.217 0-20.455-9.408-21.698-12.943l-68.579-163.622c-0.236-0.941-0.424-1.606-0.611-2.188-3.423-10.175-5.117-20.319-5.117-30.453 0.027-34.069 18.566-65.18 48.358-81.156l0.427-0.226zM710.952 606.685h-397.925c-7.405 0-13.425 6.008-13.425 13.423s6.020 13.427 13.425 13.427h397.925c7.406 0 13.427-6.012 13.427-13.427s-6.020-13.423-13.427-13.423zM740.747 115.766h-457.509c-30.544 0-55.399 24.849-55.399 55.399v221.153c0 7.415 6.019 13.42 13.423 13.42s13.425-6.005 13.425-13.42v-221.153c0-15.736 12.814-28.544 28.545-28.544h457.509c15.733 0 28.54 12.81 28.54 28.544v221.153c0 7.415 6.024 13.42 13.425 13.42 7.408 0 13.428-6.005 13.428-13.42v-221.153c0-30.544-24.856-55.399-55.399-55.399z" />
<glyph unicode="&#xe94b;" glyph-name="lens" d="M926.911 62.861l-156.776 169.194c66.719 71.483 107.602 167.375 107.602 272.638 0 220.508-179.401 399.903-399.903 399.903-220.508 0-399.903-179.395-399.903-399.903s179.395-399.903 399.903-399.903c87.957 0 169.375 28.546 235.474 76.86l157.902-170.41c7.478-8.078 17.652-12.164 27.863-12.164 9.234 0 18.492 3.35 25.799 10.117 15.377 14.259 16.304 38.284 2.039 53.667zM153.88 504.694c0 178.628 145.327 323.954 323.954 323.954 178.634 0 323.954-145.327 323.954-323.954s-145.32-323.955-323.954-323.955c-178.628 0-323.954 145.327-323.954 323.955z" />
<glyph unicode="&#xe94c;" glyph-name="static-vessel" d="M165.888 811.008h326.144v-326.144h-326.144v326.144zM492.032 444.928h-326.144v-326.144h326.144c0 0 0 326.144 0 326.144zM472.576 138.752h-286.72v286.72h286.72v-286.72zM858.112 811.008h-326.144v-326.144h326.144v326.144zM838.144 504.32h-286.72v286.72h286.72v-286.72zM531.968 444.928h326.144v-326.144h-326.144v326.144z" />
<glyph unicode="&#xe94d;" glyph-name="search" d="M847.872 759.296h-671.744v-622.624h672.256v622.624h-0.512zM828.448 156.16h-632.864v583.68h632.864v-583.68zM654.784 322.080l-54.624 59.008c23.232 24.928 37.472 58.304 37.472 95.008 0 76.832-62.496 139.328-139.328 139.328-76.864 0-139.36-62.496-139.36-139.328s62.528-139.328 139.36-139.328c30.656 0 58.976 9.952 82.048 26.752l55.040-59.36c2.592-2.816 6.144-4.256 9.696-4.256 3.264 0 6.464 1.184 8.992 3.52 5.344 4.96 5.664 13.28 0.704 18.656zM385.408 476.096c0 62.24 50.656 112.896 112.896 112.896s112.864-50.656 112.864-112.896-50.624-112.864-112.864-112.864c-62.272 0-112.896 50.624-112.896 112.864z" />
<glyph unicode="&#xe94e;" glyph-name="earphone" d="M919.040 359.936c-4.096 223.744-185.344 403.456-409.088 403.456-224.256 0-406.016-180.736-409.088-405.504-36.352-20.48-60.416-59.904-60.416-104.448 0-66.56 53.76-120.32 119.808-120.32s119.808 53.76 119.808 120.32c0 66.56-53.76 120.32-119.808 120.32-6.656 0-12.8-0.512-18.944-1.536 10.24 195.584 171.52 351.232 368.64 351.232s357.888-155.136 368.64-350.72c-5.12 0.512-10.24 1.024-15.36 1.024-66.048 0-119.808-53.76-119.808-120.32s53.76-120.32 119.808-120.32c66.048 0 119.808 53.76 119.808 120.32 0.512 46.080-25.6 86.016-64 106.496z" />
<glyph unicode="&#xe94f;" glyph-name="pic" horiz-adv-x="1040" d="M0 865.82v-822.989h1023.958v822.989h-1023.958zM975.169 814.357l0.001-683.419-319.113 364.364-122.769-106.962-192.507 272.559-292.044-337.443v490.902h926.433zM48.736 247.165l288.294 333.070 187.816-266.036 126.699 110.451 289.359-330.412h-892.167v152.928zM804.52 505.761c67.841 0 121.918 57.963 121.918 128.594 0 70.578-54.077 128.597-121.918 128.597-67.724 0-121.862-58.019-121.862-128.597 0-70.632 54.138-128.594 121.862-128.594zM804.52 720.089c42.688 0 78.121-37.985 78.121-85.735 0-47.74-35.433-85.725-78.121-85.725-42.637 0-78.065 37.985-78.065 85.725 0 47.75 35.428 85.735 78.065 85.735z" />
<glyph unicode="&#xe950;" glyph-name="bubble" horiz-adv-x="1187" d="M534.261 114.087h623.341c16.311 0 29.644 13.257 29.644 29.61v786.692c0 16.323-13.272 29.61-29.644 29.61h-1127.958c-16.311 0-29.644-13.257-29.644-29.61v-786.692c0-16.323 13.272-29.61 29.644-29.61h235.164l-86.721-178.087 356.174 178.087z" />
<glyph unicode="&#xe951;" glyph-name="seckill" d="M903.811 415.811c0-216.381-175.414-391.811-391.792-391.811s-391.842 175.43-391.842 391.811c0 216.397 175.464 391.811 391.842 391.811s391.792-175.414 391.792-391.811zM512.027 769.652c-195.433 0-353.886-158.407-353.886-353.839 0-195.417 158.454-353.836 353.886-353.836 195.43 0 353.836 158.419 353.836 353.836 0 195.432-158.406 353.839-353.836 353.839zM557.943 415.811c0-25.365-20.598-45.927-45.924-45.927-25.365 0-45.973 20.562-45.973 45.927s20.598 45.927 45.973 45.927c25.315 0.002 45.924-20.562 45.924-45.927zM495.31 685.837h33.382v-386.516h-33.382v386.516zM487.342 872h49.317v-81.821h-49.317v81.821zM841.915 714.808l-48.917-43.063-21.974 24.977 48.869 43.063zM858.686 670.756l-83.581 87.159 33.681 32.263 83.531-87.159z" />
<glyph unicode="&#xe952;" glyph-name="tokeout-discount" horiz-adv-x="964" d="M392.011 487.454c0-214.016-41.321-369.664-123.964-467.004 23.974-21.323 44.996-41.984 63.006-61.982 90.955 113.303 137.276 289.973 138.963 530.010h247.025v-523.987h79.992v523.987h181.971v73.969h-508.988v232.99c124.024 2.711 285.335 14.336 483.991 34.997l-26.985 78.005c-183.356-27.287-361.653-41.321-535.010-41.984v-379zM-5.963 324.457c51.019 16.685 97.34 31.684 139.023 44.996v-262.987c0-32.648-13.673-49.032-41.020-49.032-21.323 0-51.983 2.048-91.979 6.024 4.638-28.009 8.975-56.019 12.951-83.968 41.321-0.663 77.342-0.361 108.002 0.964 59.994 1.988 89.992 39.334 89.992 112.038v301.96c45.056 14.035 82.703 25.359 113.001 34.033-0.663 19.336-1.325 45.96-1.988 79.992-38.31-12.348-75.294-23.853-111.014-34.515v196.488h124.024v69.030h-124.024v197.993h-77.944v-197.993h-133v-69.030h133v-219.979c-53.368-15.36-103.364-29.335-150.046-41.984l11.023-84.028z" />
<glyph unicode="&#xe953;" glyph-name="tokeout-reduce" horiz-adv-x="964" d="M574.705-36.352c56.983 50.357 109.508 109.026 157.515 176.008 17.288-47.345 38.49-89.69 63.488-126.976 25.299-33.37 52.344-49.694 81.016-49.032 33.31-0.663 57.284 25.359 71.981 78.005 11.324 46.020 21.685 104.328 31.021 174.984-18.010 5.361-42.707 13.673-74.029 24.998-5.301-56.621-11.686-104.629-18.974-143.962-8.011-36.683-22.709-42.044-44.032-16.023-21.986 31.684-41.502 77.523-58.488 137.517 63.307 104.629 117.519 226.485 162.515 365.508l-72.041 24.998c-30.298-106.376-68.488-202.33-114.447-288.045-17.709 97.039-27.166 226.003-28.552 387.012h241.001v68.006h-241.483c-0.301 54.031-0.482 106.315-0.482 157.033h-73.005c0-51.019 0.301-103.364 1.024-157.033h-401.047v-319.006c0-183.296-44.333-330.993-133-442.97 16.023-10.662 36.322-29.033 61.018-54.995 94.69 125.289 141.975 289.973 141.975 493.99v254.976h332.499c3.674-213.956 18.673-373.64 45.056-478.991-56.019-84.691-121.193-157.335-195.524-217.992 22.648-13.975 44.333-29.997 64.994-48.008v0zM389.722 108.634h65.958v62.042h160.045v294.008h-226.003v-356.051zM66.68 64.663c49.995 166.008 90.052 302.682 120.049 410.022-24.034 9.276-48.67 19.998-74.029 31.985-43.309-165.346-85.655-303.706-126.976-415.021l80.956-26.985zM136.734 635.633l68.969 49.995c-46.682 61.38-93.304 119.025-139.987 173.056l-61.982-43.008c33.973-41.382 78.306-101.376 133-180.043v0zM455.68 232.659v169.984h94.027v-169.984h-94.027zM371.712 555.64h246.965v64.030h-246.965v-64.030zM861.726 790.679l56.983 44.996c-29.997 33.31-61.681 66.62-94.991 99.991l-51.019-39.996c31.985-35.358 61.681-70.355 89.028-104.99v0z" />
<glyph unicode="&#xe972;" glyph-name="fontStyle-bold" d="M721.92 467.456c39.424 47.104 63.488 107.52 63.488 173.568 0 148.48-120.832 269.312-269.312 269.312h-336.896v-943.616h404.48c148.48 0 269.312 120.832 269.312 269.312 0 98.304-52.736 183.808-131.072 231.424v0 0zM380.928 775.168h107.008c58.88 0 107.008-60.416 107.008-134.656s-48.128-134.656-107.008-134.656h-107.008v269.312zM548.352 101.376h-167.424v269.312h167.424c61.44 0 111.616-60.416 111.616-134.656s-49.664-134.656-111.616-134.656v0 0z" />
<glyph unicode="&#xe973;" glyph-name="textAlign-center" d="M781.312 891.392h-471.040v-134.144h471.040v134.144zM175.616 622.592v-134.144h740.864v134.144h-740.864zM107.52-51.712h808.96v134.656h-808.96v-134.656zM310.784 351.232v-134.144h471.040v134.144h-471.040z" />
<glyph unicode="&#xe975;" glyph-name="fontStyle-underline" d="M716.8 913.92h135.168v-437.76c0-167.424-151.040-303.104-337.92-303.104s-337.92 135.68-337.92 303.104v437.76h135.168v-437.76c0-42.496 19.456-82.944 54.272-114.176 38.912-34.816 91.648-54.272 148.48-54.272s109.568 19.456 148.48 54.272c34.816 31.232 54.272 72.192 54.272 114.176v437.76zM176.64 60.928h675.84v-90.624h-675.84v90.624z" />
<glyph unicode="&#xe976;" glyph-name="fontStyle-italic" d="M896.512 910.336v-83.456h-126.464l-316.416-776.192h126.464v-83.968h-443.392v83.968h126.464l316.416 776.192h-126.464v83.456h443.392z" />
<glyph unicode="&#xe978;" glyph-name="textAlign-left" d="M584.704 914.432h-471.040v-134.144h471.040v134.144zM854.016 646.144h-740.864v-134.656h740.864v134.656zM112.64 105.984v-134.656h808.448v134.656h-808.448zM584.704 240.128v134.144h-471.040v-134.144h471.040z" />
<glyph unicode="&#xe979;" glyph-name="fontStyle-color" d="M885.248 193.536h-182.784l-47.616 134.656h-253.952l-47.616-134.656h-178.176l253.44 673.792h203.264l253.44-673.792zM612.352 462.848l-84.48 245.76-84.48-245.76h168.96z" />
<glyph unicode="&#xe97a;" glyph-name="textAlign-right" d="M448.512 914.432v-134.144h471.040v134.144h-471.040zM179.2 646.144v-134.656h740.864v134.656h-740.864zM920.064 105.984h-808.448v-134.656h808.448v134.656zM448.512 240.128h471.040v134.144h-471.040v-134.144z" />
</font>
</defs>
</svg>
